<svg xmlns="http://www.w3.org/2000/svg" width="268" height="267">
    <defs>
        <radialGradient id="a" cx="50%" cy="50%" r="50%" fx="50%" fy="50%"
                        gradientTransform="matrix(0 1 -.99508 0 .998 0)">
            <stop offset="0%" stop-color="#886433" stop-opacity=".196" />
            <stop offset="100%" stop-color="#886433" stop-opacity="0" />
        </radialGradient>
    </defs>
    <path fill="url(#a)" fill-rule="evenodd"
          d="M170.062 133.08c0-5.075-.86-10.128-2.849-14.695-2-4.612-4.544-8.704-7.947-11.824-3.12-3.38-6.974-6.251-11.383-8.173-4.261-1.921-8.952-3.142-13.915-3.142-5.12 0-9.654 1.22-13.926 3.142-4.398 1.922-8.218 4.793-11.655 8.173-3.12 3.12-5.81 7.212-7.653 11.824-2 4.567-2.848 9.62-2.848 14.695 0 5.28.848 10.14 2.848 14.695 1.843 4.578 4.533 8.693 7.653 12.31 3.437 3.38 7.257 5.991 11.655 8.184 4.272 1.91 8.805 2.906 13.926 2.906 4.963 0 9.654-.995 13.915-2.906 4.409-2.193 8.263-4.804 11.383-8.184 3.403-3.617 5.946-7.732 7.947-12.31 1.99-4.555 2.849-9.416 2.849-14.695M100.734 14.264c-.994 1.944-2.136 2.905-3.843 3.357-1.56.486-3.414.26-5.12-.7-1.696-.713-2.838-2.205-3.403-3.63-.724-1.92-.724-3.605.282-5.052.995-1.922 2.137-2.883 4.126-3.629a6.36 6.36 0 0 1 5.11.746c1.56.724 2.848 2.148 3.278 3.866.7 1.9.7 3.606-.43 5.042m27.695-5.765c-.995 2.148-2.419 3.097-4.408 3.617-1.56.226-3.267.226-4.974-.746-1.56-.723-2.69-1.922-3.403-3.628-.43-1.662-.43-3.37.712-5.28 1.13-2.181 2.408-3.153 4.398-3.368 1.424-.249 3.142 0 4.827.7 1.424.962 2.566 2.194 3.266 3.618.577 1.707.577 3.38-.418 5.087m26.282-4.363c.43 1.695.43 3.142-.577 4.589-.7 1.458-1.842 2.396-3.538 3.109-1.707.757-3.414.757-5.267 0-1.707-.713-2.973-2.148-3.414-4.092-.565-1.662-.565-3.37.44-4.793.995-1.956 2.273-3.154 3.821-3.64 2.001-.464 3.697-.464 5.121.486 2.137.96 3.414 2.419 3.414 4.34m25.276 5.55c1.006 1.436.723 3.143-.272 5.031-.7 1.492-2.125 2.69-3.843 3.391-1.696.486-3.403.486-5.245-.486-1.424-.938-2.43-2.136-3.414-3.832-.712-1.955-.418-3.606.418-5.29.995-1.707 2.295-2.905 3.99-3.38 1.843-.746 3.539-.509 5.246.475 1.707.723 2.848 2.148 3.12 4.092m23.161 9.642c.43 1.684.43 3.391-.553 5.064-.86 2.17-2.43 3.12-4.273 3.369-1.696.237-3.403 0-4.827-.724-1.424-.938-2.702-1.933-3.425-3.617-.701-1.707-.701-3.368.576-5.053 1.153-2.159 2.566-3.165 4.273-3.65 1.707-.216 3.403 0 4.827 1.005 1.413.961 2.702 1.9 3.402 3.606m21.455 14.707c.984 1.447.441 3.142-.565 4.804-1.141 1.955-2.566 3.142-4.555 3.38-1.707.237-3.414 0-4.544-.712-1.142-.713-2.408-2.182-3.403-3.618-.723-1.47-.43-3.38.283-5.313 1.141-1.921 2.701-2.87 4.25-3.142 2-.475 3.708-.238 5.403.757 1.425.95 2.566 2.137 3.131 3.844m18.335 19.725c.837 1.48.837 3.391-.293 5.098-1.266 1.9-2.69 3.131-4.262 3.38-1.978.226-3.414 0-4.962-.972-1.436-.509-2.555-1.707-3.279-3.12-1.006-1.48-.712-3.38.136-5.324 1.277-1.9 2.713-3.131 4.691-3.606 1.718-.486 3.414 0 4.838.938 1.413.769 2.566 2.193 3.131 3.606m13.475 23.648c.735 1.707.735 3.369-.271 5.075-.984 1.425-2.137 2.623-3.833 3.38-1.706.713-3.707.713-5.256-.508-1.695-.724-2.702-2.148-3.278-3.855-.43-1.922-.43-3.369.576-5.053 1.007-1.944 2.137-3.368 3.844-3.606 1.978-.249 3.55 0 5.11.712 1.412.712 2.26 1.933 3.108 3.855m9.54 26.78c.272 1.638 0 3.119-.859 5.03-.712 1.48-1.99 2.667-3.832 3.38-1.435.474-3.414.474-5.12-.487-1.707-.95-2.713-2.181-3.414-3.843-.419-1.956-.147-3.629.7-5.087.724-1.899 2.137-3.097 4.127-3.606 1.706-.723 3.425-.486 5.132.509 1.695.95 2.837 2.148 3.266 4.103M155.14 258.667c.554 1.662.283 3.109-.43 4.805-.994 1.673-2 2.656-3.696 3.368-1.413.735-3.266.475-5.256-.249a7.3 7.3 0 0 1-3.402-4.08c-.713-1.933-.441-3.618.27-5.064.996-1.685 2.137-2.668 4.127-3.154 1.707-.712 3.56-.486 4.974 0 1.99 1.22 3.278 2.667 3.413 4.374m113.074-122.433c-.7 1.662-2.26 2.645-3.832 3.346-1.695.735-3.402.486-5.403-.215-1.424-1.006-2.566-2.43-3.414-4.115-.407-1.921-.407-3.605.577-5.301 1.006-1.673 2.136-2.905 4.114-3.38 1.707-.463 3.414-.463 4.838.475 1.832.96 2.838 2.193 3.403 4.092.712 1.47.712 3.38-.283 5.098m-3.12 27.955c-1.006 1.887-2.407 2.893-4.408 3.368-1.707.238-3.414 0-4.827-.994-1.424-.713-2.555-1.91-3.278-3.38-.837-1.436-.543-3.324.44-5.517.984-1.424 2.137-2.419 4.127-3.13 1.83-.487 3.538-.238 4.962.463 1.978.96 2.984 2.193 3.414 4.092.7 1.706.43 3.39-.43 5.098M256.571 189c-.712 1.436-2.136 2.385-3.843 3.391-1.831.452-3.561.452-4.963-.486-2-1.006-2.984-2.193-3.696-4.126-.43-1.91-.294-3.357.43-5.064.994-1.662 2.26-2.905 3.967-3.606 1.707-.486 3.278-.237 5.268.497a9.7 9.7 0 0 1 3.414 4.081c.7 1.707.407 3.369-.577 5.313m-12.932 22.653c-.7 1.91-2.26 3.109-4.114 3.595-1.719.712-3.425.486-5.121-.486-1.707-.701-2.849-2.137-3.538-3.844-.588-1.661-.294-3.368.418-5.279 1.277-1.458 2.408-2.645 4.115-3.368 1.707-.52 3.414-.52 5.132.463 1.842.961 3.108 2.16 3.538 3.866.712 1.91.43 3.618-.43 5.053m-19.6 21.184c-1.142 1.955-2.567 3.391-4.556 3.854-1.707.25-3.414 0-4.544-.712-1.142-.712-2.408-2.136-3.403-3.843-.723-1.673-.43-3.38.283-5.053 1.141-2.17 2.701-3.131 4.25-3.617 2 0 3.708.248 5.403.972 1.425.7 2.566 1.888 3.131 3.357.984 1.447.441 3.143-.565 5.042m-20.89 14.978c-.983 1.899-2.125 3.086-3.832 3.606-1.695.734-3.413.486-5.403-.52-1.707-.939-2.555-2.126-3.12-4.07-.418-1.673-.418-3.38.565-5.064.848-1.696 2.137-2.894 3.844-3.357 1.695-.724 3.267-.475 4.827.463 1.853.96 3.12 2.193 3.549 3.866.712 1.707.565 3.357-.43 5.076M179.58 258.43c-1.006 1.662-2.284 2.86-4.126 3.346-1.572.26-3.414.26-5.121-.735-1.707-.95-2.702-2.148-3.12-3.854-.712-1.673-.712-3.38 0-5.28.984-1.458 2.42-2.645 4.115-3.13 1.718-.475 3.56-.475 5.539.485 1.413.939 2.713 2.16 3.12 3.844.43 1.673.43 3.606-.407 5.324m-51.716 5.268c-.86 1.944-2.283 3.142-3.843 3.617-1.843.712-3.267.26-5.528-.475-1.436-.95-2.43-2.17-3.143-3.854-.712-1.696-.712-3.37.294-5.313a9.83 9.83 0 0 1 4.115-3.38c1.854-.486 3.425-.486 4.974.486 1.707.983 2.984 2.181 3.696 3.888.418 1.91.124 3.369-.565 5.03m-27.13-5.267c-.994 1.662-2.136 2.86-3.843 3.346-1.56.26-3.414.26-5.12-.735-1.696-.95-2.838-2.148-3.403-3.854-.724-1.888-.724-3.606.282-5.28.995-1.458 2.137-2.645 4.126-3.13 1.696-.475 3.539-.475 5.11.485 1.56.939 2.848 2.16 3.278 3.844.7 1.673.7 3.606-.43 5.324m-24.586-10.874c-1.006 2.159-2.114 3.13-4.126 3.346-1.707.26-3.414 0-4.815-.701-1.436-.939-2.42-1.9-3.425-3.606-.701-1.685-.701-3.391.576-5.053.86-1.707 2.408-3.131 3.843-3.606 1.707-.486 3.256-.486 5.246.475 1.695.95 2.972 2.407 3.425 3.854.418 1.673.282 3.606-.724 5.29m-19.612-14.231c-.701 1.47-2.408 2.656-3.968 3.368-1.718.52-3.414.25-5.11-.712-1.706-.712-2.837-2.136-3.696-3.843-.44-1.673-.147-3.38.554-5.053 1.006-1.707 2.42-2.645 4.149-3.369 1.684-.474 3.39-.248 4.962.464 1.684.96 2.973 2.396 3.391 3.866.724 1.899.724 3.606-.282 5.279m-20.02-21.206c-.712 1.944-2.147 2.893-3.854 3.38-1.549.757-3.244.463-4.963-.487-1.707-.712-2.69-1.899-3.413-3.854-.419-1.425-.283-3.369.43-5.03 1.005-1.707 2.282-2.906 3.99-3.392 1.842-.7 3.266-.463 4.69.26 1.979.938 3.12 2.125 3.686 4.07.723 1.684.43 3.628-.566 5.053m-12.92-22.88c-1.289 1.662-2.713 2.894-4.409 3.154-1.853.452-3.549 0-4.838-.746-1.413-.746-2.543-1.933-3.267-3.357-.983-1.707-.7-3.38.147-5.573.984-1.662 2.408-2.905 3.832-3.357 1.843-.486 3.686-.25 5.404.712 1.707.983 2.543 2.193 3.402 3.843.712 1.707.712 3.38-.271 5.324m-8.535-24.586c-.859 1.424-2.419 2.43-3.979 2.905-1.706.475-3.696.238-5.109-.723-1.707-.758-2.837-1.696-3.414-3.651-.43-1.9-.147-3.606.712-5.03.577-1.911 2.001-2.906 3.708-3.38 1.696-.475 3.538-.238 5.234.474 1.707.995 2.848 2.42 3.425 4.092.407 1.707.294 3.38-.577 5.313m-3.12-28.667c-.712 1.673-2.136 2.894-3.978 3.38-1.707.475-3.414.475-5.121-.486-1.696-.983-2.826-2.182-3.55-3.889-.576-1.661-.282-3.345.724-5.041.836-1.673 2.114-2.905 3.832-3.38 1.696-.463 3.402-.463 4.951.475 1.718.96 3.007 2.193 3.414 3.854.723 1.707.723 3.38-.271 5.087m2.69-27.491c-.995 1.684-2.137 2.668-3.832 3.391-1.696.712-3.414.464-5.12-.26-1.56-.927-2.838-2.408-3.268-4.092-.576-1.707-.576-3.606.43-5.301 1.006-1.922 2.43-2.906 4.137-3.38 1.696-.249 3.403 0 4.827.723 1.413.735 2.543 1.922 3.255 3.606.577 1.707.577 3.606-.43 5.313m9.236-26.53c-.859 2.204-2.272 3.39-4.114 3.628-1.707.509-3.414.271-4.827-.723-1.424-.961-2.713-2.148-3.414-3.606-.712-1.447-.712-3.132.43-5.29.994-1.934 2.26-3.132 4.103-3.38a6.68 6.68 0 0 1 4.838.486c1.424.96 2.713 2.181 3.12 3.854.712 1.662.712 3.369-.136 5.03m14.628-23.342c-.984 1.673-2.408 2.905-4.126 3.368-1.707.249-3.256.249-5.245-.723-1.696-.735-2.838-1.922-3.403-3.866-.712-1.684-.43-3.64.565-5.29.712-1.696 2.42-2.657 3.968-3.38 1.718-.464 3.414-.238 5.12.723 1.708.961 2.838 2.182 3.697 3.855.418 1.933.147 3.606-.576 5.313m18.753-19.782c-.848 1.707-2.137 2.668-3.968 3.38-1.424.474-3.414.237-5.11-.486-1.717-.701-2.848-1.933-3.424-3.844-.701-1.707-.43-3.606.282-5.313 1.006-1.435 2.43-2.633 4.126-3.142a5.15 5.15 0 0 1 4.974.509c1.99.712 3.12 2.147 3.696 3.866.43 1.673.43 3.368-.576 5.03m19.624-15.17c-.724 1.922-2.137 3.142-3.844 3.628-1.707.701-3.414.464-5.403-.486-1.413-1.006-2.543-2.193-3.267-3.854-.712-1.696-.576-3.38.43-5.336.983-1.413 2.114-2.645 3.82-3.357 2.001-.475 3.55-.475 5.132.452 1.832 1.006 2.838 2.204 3.414 3.877.701 1.933.701 3.606-.282 5.076m23.862 206.795c-.994 1.673-2.136 2.86-3.843 3.38q-2.984.713-5.12 0c-1.99-1.006-3.12-2.42-3.833-4.115-.418-1.684-.418-3.628.43-5.064.983-2.182 2.419-3.131 4.408-3.606a9.44 9.44 0 0 1 5.11.7c1.424.724 2.554 1.956 3.278 3.618.7 1.47.7 3.154-.43 5.087m24.993 6.986c-.712 1.91-2.136 2.871-3.843 3.617-1.707.475-3.391.237-4.827-.746-1.842-.723-2.837-1.91-3.527-3.629-.587-1.899-.305-3.368.407-5.041.984-1.707 2.126-2.894 3.832-3.606 1.719-.712 3.414-.486 5.415.237 1.413.961 2.543 2.182 3.12 3.855.7 1.707.407 3.606-.577 5.313m-49.579-20.72c-1.006 1.424-2.114 2.373-3.99 2.893-1.549.724-3.256.475-4.951-.52-1.99-.7-3.131-1.899-3.561-3.854-.7-1.685-.565-3.369.43-5.03 1.006-1.707 2.136-2.668 3.832-3.392 1.706-.463 3.413-.226 5.12.498 1.707.938 2.838 2.407 3.55 3.832.576 1.955.576 3.39-.43 5.573m-30.396-25.57c.983-1.673 2.136-2.871 4.114-3.866 1.99-.486 3.414-.486 4.974.486 1.978.972 2.984 2.182 3.708 4.126.407 1.9.271 3.38-.724 5.03-.712 1.956-1.99 3.392-3.843 3.629-1.696.226-3.131 0-5.11-.735-1.412-.7-2.837-2.148-3.549-3.606-1.006-1.447-.576-3.38.43-5.064m-1.006-17.08c-.984 1.899-2.408 3.086-4.115 3.357-1.56.486-3.55.249-5.256-.509-1.413-.95-2.849-1.91-3.55-3.617-.712-1.662-.712-3.369.43-5.279.995-1.696 2.114-2.894 4.114-3.38 1.707-.7 3.55-.7 5.11.238 1.842.723 2.837 2.192 3.55 3.854.723 1.707.723 3.369-.283 5.336m-6.251-25.355c-.984 1.47-2.408 2.43-4.126 3.142-1.707.486-3.256.486-5.245-.474-1.696-.939-2.838-2.148-3.403-3.855-.712-1.673-.43-3.369.565-5.053 1.142-1.933 2.42-3.12 4.262-3.606 1.424-.52 3.12-.237 4.827.7 1.707.736 2.701 2.171 3.414 3.878.7 1.662.43 3.369-.294 5.268m196.904-56.147c.7 1.707.7 3.617-.294 5.075-.701 1.673-2.114 3.143-3.82 3.629-1.697.463-3.256.463-5.246-.486-1.436-.995-2.713-2.193-3.436-3.855-.701-1.695-.419-3.617.587-5.335.848-1.65 2.126-2.645 3.832-3.12a6.2 6.2 0 0 1 4.963.475c1.707.508 2.984 1.944 3.414 3.617m6.533 31.572c-.994 1.707-2.125 2.894-4.126 3.38-1.706.226-3.402 0-5.245-.486-1.695-.938-2.701-2.137-3.425-3.606-.69-1.673-.407-3.391.724-5.517.712-1.706 2.125-2.905 4.137-3.617 1.696-.531 3.391-.248 4.816.712 1.842.701 3.12 2.16 3.56 4.092.565 1.436.565 3.132-.44 5.042m-21.037-56.622c.723 1.707.576 3.358-.407 5.064-.712 1.673-2.001 2.894-3.697 3.38-1.56.713-3.55.713-5.256-.237-1.424-.995-2.702-2.182-3.414-3.855-.7-1.707-.407-3.38.294-5.324 1.006-1.662 2.114-2.894 3.832-3.368 1.99-.724 3.685-.475 5.392.474 1.436.961 2.577 2.182 3.256 3.866m-19.16-18.798c.712 1.684.429 3.131-.283 5.03-.995 1.48-2.137 2.68-3.832 3.391-1.718.746-3.425.509-5.415-.486-1.413-.7-2.543-1.899-3.12-3.843-.712-1.447-.418-3.369.577-5.053.712-1.707 2.136-2.894 3.832-3.369 1.707-.723 3.402-.463 4.827.238 1.842.95 2.837 2.147 3.413 4.092m-22.72-12.796c.565 1.243.565 2.43 0 3.866-.306 1.232-1.018 2.181-1.854 3.13a8.8 8.8 0 0 1-3.697 1.708c-1.424.237-2.701 0-3.832-.701-1.718-.757-3.131-1.956-3.56-3.866-.86-1.707-.577-3.131.146-4.85 1.696-2.893 3.844-4.08 6.828-4.08 3.12.248 4.951 1.955 5.968 4.793m-25.58-6.975c.7 1.696.576 3.369-.159 5.076-.983 1.661-2.407 2.905-3.956 3.606-1.571.723-3.56.486-5.256-.464-1.707-.757-3.132-2.182-3.55-3.628-.576-1.933-.576-3.606.418-5.55.984-1.436 2.125-2.408 3.832-3.38 1.719-.475 3.414-.475 5.11.485 1.707.995 2.837 2.193 3.56 3.855m-28.836 5.55c-1.006 1.91-2.419 3.132-4.126 3.38-1.978.238-3.414 0-4.827-.95-1.424-.52-2.701-1.717-3.413-3.13-.995-1.481-.701-3.403.565-5.325.734-1.921 1.842-2.893 3.854-3.617 1.413-.475 3.392-.249 4.963.724 1.978.734 2.984 1.921 3.402 3.843.566 1.707.294 3.368-.418 5.075m-29.99 11.316c-1.13.237-2.543.237-3.82-.238-1.142-.712-2.137-1.187-2.849-2.17-.994-.96-1.413-1.91-1.99-3.346-.135-1.47 0-2.668.713-3.889.859-1.435 2.272-2.633 3.696-3.38 1.854-.712 3.55-.474 5.55.294 2.397 1.413 3.833 3.606 3.539 6.704-.136 3.13-1.56 5.075-4.838 6.025M77.56 54.529c-.983 1.673-2.125 2.87-4.114 3.617-1.425.475-3.403.226-5.11-.746-1.571-.735-2.566-2.16-3.12-4.092-.43-1.673-.43-3.391.554-5.042.995-1.718 2.137-2.905 3.843-3.39 1.707-.476 3.414-.476 5.257.485 1.707.95 2.984 2.17 3.12 4.092.576 1.922.576 3.369-.43 5.076M59.25 68.263c.282 1.91 0 3.617-.43 5.053-.995 1.662-2 2.656-3.708 3.369-1.83.723-3.255.486-5.245-.713-1.401-.994-2.701-2.193-3.13-3.854-.702-1.945-.566-3.369.429-5.076a5.97 5.97 0 0 1 3.82-3.38c1.73-.712 3.437-.474 5.415.238 1.549 1.243 2.555 2.656 2.849 4.363m-15.204 29.39c-.724 1.673-1.707 2.657-3.414 3.38-1.413.712-3.402.712-5.256-.237-1.707-.995-2.849-2.408-3.403-4.092-.723-1.944-.43-3.38.283-5.098.995-1.65 2.114-2.894 4.114-3.357a6.47 6.47 0 0 1 5.11.712c1.842.994 3.142 2.193 3.267 3.843.576 1.707.282 3.391-.701 4.85m-5.55 23.613c-1.266 1.685-2.69 2.883-4.24 3.392-1.729.486-3.436.248-5.131-.509-1.425-1.198-2.702-2.148-3.132-3.855-.983-1.673-.7-3.38.294-5.279 1.142-1.944 2.42-2.905 4.262-3.39 1.424-.216 3.12 0 4.827.723s2.701 2.181 3.414 3.866c.7 1.446.43 3.368-.294 5.052m203.437 27.695c-.994 1.707-2.125 2.905-4.126 3.391-1.706.746-3.402.51-5.109-.237-3.56-2.396-4.668-5.29-3.267-9.145.848-1.707 2.42-2.656 3.99-3.391 1.979-.7 3.403-.7 5.11.26 1.718.938 3.12 2.419 3.843 4.092.565 1.424.565 3.369-.44 5.03m-6.828 25.118c-.701 1.424-1.843 2.622-3.82 3.357-1.697.486-3.256.486-5.246-.509-1.436-.95-2.43-2.147-3.142-3.854-.566-1.425-.294-3.369.43-4.805.994-1.706 2.26-3.13 3.842-3.617 1.685-.7 3.403-.7 4.816.238 2.012.723 3.12 2.192 3.708 3.854.712 1.707.407 3.369-.588 5.336m-13.203 23.105c-1.006 1.707-2.125 2.905-3.832 3.606-1.707.96-3.403.723-5.11 0-1.718-.96-2.848-2.408-3.402-4.08-.724-1.934-.724-3.618.282-5.325.69-1.673 2.273-2.86 3.957-3.606 1.594-.723 3.278-.486 5.279.509 1.413.712 2.543 2.148 3.255 3.843.86 1.673.566 3.38-.43 5.053m-78.98 34.24c.87-1.956 2.408-2.894 3.832-3.629 1.854-.463 3.56-.237 4.974.486 1.99.961 2.984 2.182 3.696 3.855.723 1.707.723 3.606-.283 5.313-1.006 1.91-2.136 2.871-3.843 3.368-1.696.486-3.55.25-5.256-.746-1.685-.712-2.69-2.136-3.414-3.843-.712-1.684-.407-3.391.294-4.804m60.227-14.695c-.983 1.673-2.125 2.893-3.832 3.368-1.695.475-3.413.475-5.12-.475-1.718-.994-2.838-2.181-3.55-4.126-.712-1.435-.576-3.142.147-4.804a8.54 8.54 0 0 1 4.126-3.628c1.707-.701 3.403-.464 5.11.26 1.853.938 3.12 2.407 3.549 4.08.712 1.707.565 3.606-.43 5.325m-24.134 13.96c-.734 1.684-1.853 2.871-3.854 3.629-1.696.474-3.391.226-5.098-.475-1.865-1.006-2.849-2.42-3.561-3.9-.43-1.9-.43-3.369.43-5.279.983-1.718 2.272-2.656 3.832-3.38 1.706-.712 3.413-.712 4.826.249 2.001.95 3.12 2.419 3.99 4.092.702 1.933.408 3.357-.565 5.064m18.324-39.53c-.44 1.684-2 3.12-3.55 3.617-1.989.735-3.718.735-5.538-.248-1.583-.724-2.713-2.137-3.414-4.092-.576-1.685-.576-3.38.407-5.042.723-1.707 2.148-2.894 3.843-3.617 1.707-.724 3.392-.475 5.11.237 1.707.96 2.86 2.408 3.56 4.092.566 1.673.566 3.606-.418 5.053m-120.76-12.287c.576 1.684.294 3.39-.43 5.041-1.006 1.481-1.978 2.43-3.696 3.143-1.707.723-3.256.474-5.245-.713-1.718-.474-2.849-1.921-3.561-3.628-.565-1.662-.565-3.357.43-5.03 1.006-1.707 2.136-2.905 4.125-3.606 1.707-.52 3.256-.294 4.827.452 2.114 1.198 3.391 2.634 3.55 4.34m19.33 23.4c-1.006 1.661-2.43 2.622-4.138 3.368a6.44 6.44 0 0 1-4.826-.52c-1.843-.938-2.85-2.385-3.426-3.843-.7-1.91-.7-3.595.577-5.053.723-1.695 1.854-2.894 3.843-3.38 1.413-.712 3.425-.452 4.974.486 1.696.713 2.702 1.956 3.403 3.855.576 1.707.282 3.38-.407 5.087M60.243 135.51c-.712 1.91-1.989 2.85-3.843 3.618-1.695.452-3.402.237-5.11-.769-1.695-.7-2.825-1.899-3.402-3.843-.723-1.436-.43-3.38.283-5.053.983-1.707 2.114-2.657 3.82-3.357a6.64 6.64 0 0 1 4.827.463c2.001.96 3.143 2.43 3.844 3.866.576 1.922.576 3.595-.419 5.075m17.612-49.647c-.7 1.91-2.283 3.098-4.115 3.606-1.718.486-3.425.486-5.132-.508-1.706-.95-2.837-2.148-3.39-4.092-.43-1.425-.43-3.369.553-5.053.995-1.685 2.137-2.645 3.843-3.369 1.707-.475 3.414-.237 5.257.724 1.707.96 2.984 2.181 3.414 3.843.712 1.707.418 3.38-.43 4.85m116.782-7.733c-.848 1.447-2.16 2.646-3.844 3.132-1.707.7-3.402.474-5.256-.486-1.707-.713-2.702-1.9-3.403-3.606-.712-1.91-.44-3.618.283-5.053.995-1.945 2.419-2.883 4.103-3.618 1.436-.508 3.414-.237 4.838.487 1.707.95 2.838 2.147 3.561 3.854.701 1.662.701 3.369-.282 5.29M173.882 63.9c-.836 1.695-2.113 2.656-3.82 3.142-1.865.486-3.561.486-4.974-.486-2-.96-3.131-2.182-3.708-3.843-.7-1.707-.407-3.369.577-4.816.836-1.933 2.136-3.13 3.843-3.617 1.696-.52 3.403-.52 4.827.486 1.842.95 3.12 2.148 3.82 4.092.442 1.436.442 3.38-.565 5.042m45.194 53.761c.407 1.685.407 3.392-.588 4.816-.848 2.43-2.42 3.629-3.968 3.855-1.695.237-3.414 0-5.098-.713-1.707-.96-2.86-1.933-3.708-3.617-.44-1.458-.44-3.38.848-5.087.86-1.661 2.137-3.142 3.968-3.843 1.718-.475 3.708-.475 5.132.475 1.707.983 2.826 2.17 3.414 4.114m-43.622 89.664c-1.006 1.65-2.272 2.894-3.832 3.368-1.696.464-3.425.464-5.121-.474-1.707-.961-2.973-2.43-3.414-4.093-.418-1.48-.418-3.13.441-4.849.983-1.673 2.272-2.894 3.968-3.595 1.707-.497 3.538-.26 5.267.701 1.413.984 2.69 2.182 3.109 3.889.723 1.424.576 3.368-.418 5.053m-25.14 7.438c-.713 1.967-1.854 3.154-3.832 3.64-1.719.7-3.426.226-5.132-.486-1.843-.961-3.109-2.42-3.55-3.855-.43-1.707-.43-3.369.441-5.313.972-1.424 2.272-2.623 3.979-3.109 1.571-.746 3.267-.52 4.962.486 1.707.939 2.985 2.137 3.686 3.844.43 1.684.43 3.142-.554 4.793m-86.238-54.904c-.995 1.888-2.42 2.86-3.833 3.844-1.695.486-3.425.486-5.403-.52-1.56-.939-2.555-2.137-3.278-3.844-.712-1.673-.712-3.606.294-5.29.859-1.696 2.272-2.894 3.979-3.595 1.413-.486 3.414-.26 5.11.464 1.706.95 2.701 2.43 3.413 3.854.724 1.933.724 3.38-.282 5.087m.712-51.128c-1.142 2.193-2.713 3.38-4.398 3.38-1.57.238-3.278 0-4.985-.486-1.707-.7-2.837-1.944-3.55-3.357-.564-1.707-.564-3.38.713-5.087.86-1.899 2.137-3.097 3.968-3.855 1.718-.474 3.707-.474 5.12.475 1.719.746 3.132 1.944 3.561 3.9.554 1.673.554 3.369-.43 5.03m33.947-41.203c-.848 1.707-2.137 2.905-3.832 3.606-1.99.486-3.539.486-5.257-.486-1.707-.95-2.984-2.148-3.696-4.092-.418-1.662-.136-3.368.712-5.03.859-1.707 2.272-2.905 3.696-3.38 1.854-.746 3.55-.486 5.55.475 1.685.723 2.827 2.136 3.403 3.843.43 1.684.43 3.38-.576 5.064m50.585-15.667c.848 1.447.554 3.154-.147 4.804-.712 1.707-1.99 2.894-3.843 3.629-1.707.463-3.414.463-5.392-.475-1.696-.723-2.566-2.16-3.132-3.855-.712-1.684-.418-3.39.566-5.041.87-1.707 2.136-2.905 3.843-3.618 1.707-.52 3.414-.52 4.962.464 1.707.96 2.713 2.148 3.143 4.092m60.521 46.041c-1.006 1.673-2.125 2.894-3.843 3.38-1.707.7-3.402.7-4.838-.249-1.843-.723-3.131-2.181-3.82-3.843-.442-1.707-.442-3.391.417-5.324.713-1.447 1.99-2.668 3.98-3.38a6.23 6.23 0 0 1 4.973.475c1.707.994 2.849 2.193 3.403 3.843.7 1.707.418 3.391-.272 5.098m-88.657 115.662c-1.141 1.447-2.419 2.69-4.126 3.392-1.842.712-3.527.486-4.962-.226-2-1.233-3.143-2.43-3.708-4.104-.69-1.707-.407-3.368.565-5.301.735-1.447 1.866-2.68 3.844-3.143 1.56-.96 3.267-.723 5.267.238 1.425.7 2.69 2.181 3.414 3.843.701 1.707.701 3.391-.294 5.301m90.353-42.638c-1.006 1.673-2.419 3.154-4.115 3.606-1.707.746-3.278.746-4.973-.238-1.719-.734-3.132-2.181-3.685-3.843-.735-1.707-.441-3.369.282-5.313.984-1.435 2.114-2.656 4.103-3.391 1.707-.95 3.561-.7 4.974 0 1.99.972 2.984 2.442 3.697 4.103.712 1.707.712 3.618-.283 5.076M123.184 57.897c-1.006 1.922-2.283 2.86-3.843 3.629-1.854.712-3.697.712-5.404-.26s-2.837-2.17-3.549-4.115c-.565-1.91-.294-3.391.43-5.041 1.006-1.696 2.407-3.143 3.82-3.844 2.012-.497 3.708-.497 5.404.464 1.57.96 2.554 2.193 3.549 4.092.43 1.707.43 3.38-.407 5.075m95.892 89.878c-1.006 1.47-2.442 2.42-4.137 3.143-1.979.95-3.403.723-5.099-.249-1.718-.95-3.13-2.182-3.56-3.843-.566-1.707-.566-3.369.282-5.313.86-1.673 2.137-2.634 3.968-3.38 1.718-.712 3.708-.712 5.132 0 1.707.995 2.826 2.182 3.538 4.126.724 1.673.724 3.606-.124 5.516m-33.54-46.742c.713 1.662.43 3.154-.293 5.053-.983 1.696-2.408 2.645-3.82 3.38-1.843.712-3.426.712-5.257-.249-1.718-.95-2.702-2.43-3.403-4.092-.723-1.944-.723-3.38.283-5.041.836-1.696 2.408-2.894 4.115-3.617 1.853-.51 3.255-.272 4.973.474 1.696.961 2.826 2.385 3.403 4.092m-83.39 73.499c-.983 1.673-2.407 2.905-4.126 3.391-1.706.475-3.413.475-5.109-.486-1.549-.735-2.837-1.933-3.56-3.877-.419-1.673-.283-3.38.429-5.29 1.006-1.707 2.43-2.657 4.126-3.132 1.707-.723 3.414-.486 5.403.475 1.424.95 2.555 2.182 3.12 3.855.848 1.707.712 3.38-.283 5.064m-13.497-21.67c-1.006 1.673-2.125 2.871-3.832 3.38-1.707.463-3.413 0-5.392-.995-1.435-.712-2.554-1.899-3.278-3.606-.576-1.921-.576-3.617.43-5.301.983-1.47 2.125-2.668 3.843-3.12 1.967-.735 3.674-.486 5.11.452 1.989.746 3.12 2.193 3.538 3.866.712 1.707.576 3.38-.419 5.324m5.822-46.55c-.995 2.182-2.26 3.369-4.115 3.618-1.99.486-3.413.248-5.11-.713-1.729-.723-2.7-1.91-3.413-3.617-.723-1.673-.43-3.368.712-5.29.972-1.922 2.272-2.894 4.115-3.369 1.707 0 3.414.249 5.11.961 1.706.701 2.701 1.9 3.413 3.38.724 1.662.147 3.357-.712 5.03m71.023-23.105c.723 1.662.576 3.12-.283 4.804-.848 1.707-2.125 2.894-3.832 3.38-1.707.475-3.267.475-5.234-.486-1.435-.95-2.712-2.193-3.436-3.843-.418-1.707-.418-3.38.565-5.325.735-1.435 2.148-2.622 3.855-3.142 1.842-.464 3.55-.464 4.974.52 1.99.95 2.984 2.385 3.39 4.092m12.096 91.81c-.995 1.448-2.43 2.669-4.126 3.155-1.424.7-3.402.452-4.974-.486-1.695-.984-2.995-2.182-3.402-3.9-.724-1.673-.724-3.335.124-5.28.86-1.424 2.42-2.656 4.126-3.13 1.696-.486 3.425-.238 5.11.474 1.718.984 2.848 2.182 3.55 3.855.576 1.944.282 3.369-.408 5.313m-23.456 13.27c-1.13 1.911-2.554 3.098-4.261 3.098-1.99.52-3.697 0-5.11-.7-1.413-.724-2.407-1.934-3.413-3.392-.701-1.424-.419-3.131.565-5.279a9.5 9.5 0 0 1 3.843-3.617c1.99-.475 3.56-.226 5.256.475 1.696 1.198 2.702 2.43 3.426 4.103.7 1.695.7 3.368-.306 5.313m-29.401-.509c-1.142 1.933-2.555 2.905-3.98 3.12-1.989.486-3.402.26-4.826-.463-1.571-.95-2.702-2.148-3.403-3.63-.7-1.412-.7-3.356.272-5.29.859-1.91 2.419-3.12 4.261-3.345 1.707-.249 3.697-.249 5.121.7 1.413.735 2.555 2.182 3.403 3.63.43 1.92.43 3.368-.848 5.278m15.204-106.043c-1.006 1.707-2.137 2.657-3.844 3.369-1.707.757-3.255.757-5.256-.237-1.413-.961-2.69-2.386-3.12-4.092-.712-1.662-.577-3.369.43-5.042.7-1.696 2.419-2.894 4.114-3.617 1.707-.498 3.403-.238 5.11.474 1.56.961 2.837 2.386 3.278 3.855.565 1.922.282 3.617-.712 5.29M86.23 129c-.7 1.9-2.136 3.132-3.843 3.606-1.684.475-3.391.475-4.827-.474-1.99-.995-2.826-2.182-3.527-3.855-.587-1.707-.587-3.369.701-5.324.701-1.425 1.843-2.657 3.55-3.369 1.695-.475 3.55-.475 5.233.464 1.73.723 2.713 2.193 3.426 4.103.576 1.707.293 3.38-.713 4.85m104.562 25.298c-.859 2.17-2.419 3.368-4.273 3.606-1.684.248-3.39.248-5.098-.712-1.435-.724-2.713-1.945-3.425-3.392-.407-1.684-.407-3.606.712-5.539 1.278-1.921 2.713-3.142 4.42-3.39 1.707 0 3.391 0 4.827.994 1.413.712 2.69 1.91 3.402 3.38.441 1.673.441 3.346-.565 5.053m-78.562-65.1c-.995 1.707-2.137 2.668-3.844 3.38-1.695.746-3.391.746-5.11-.226-1.548-.961-2.837-2.397-3.266-4.103-.7-1.673-.565-3.38.43-5.042.723-1.707 2.136-3.143 3.832-3.629 1.718-.463 3.425-.463 4.838.486 1.99.95 3.12 2.42 3.685 3.844.43 1.684.43 3.606-.565 5.29m81.965 34.952c.723 1.707.294 3.38-.407 4.85-1.006 2.136-2.43 3.357-4.126 3.605-1.707.475-3.414.238-4.827-.723-1.424-.746-2.702-1.933-3.414-3.369-.43-1.707-.43-3.368.565-5.561.713-1.425 1.843-2.657 3.821-3.369 1.583-.475 3.278-.475 4.985.464 1.99.723 2.996 2.193 3.403 4.103m-16.335 8.93a47.1 47.1 0 0 1-3.413 17.59c-2.408 5.572-5.245 10.614-9.36 14.706s-8.942 7.472-14.22 9.642c-5.11 2.419-10.931 3.606-16.9 3.606-6.104 0-11.79-1.187-17.182-3.606-5.256-2.17-9.812-5.55-13.644-9.642-4.115-4.092-7.234-9.134-9.53-14.707-2.249-5.313-3.255-11.304-3.255-17.589 0-6.274 1.006-12.31 3.256-17.826 2.295-5.573 5.414-10.615 9.53-14.707 3.831-4.08 8.387-7.45 13.643-9.642 5.392-2.42 11.078-3.606 17.182-3.606 5.969 0 11.79 1.187 16.9 3.606 5.278 2.193 10.105 5.562 14.22 9.642 4.115 4.092 6.952 9.134 9.36 14.707 2.147 5.516 3.413 11.552 3.413 17.826m-29.684 1.436c0 3.38-1.424 6.262-4.386 8.941-2.86 2.657-5.99 3.844-9.823 3.844-3.82 0-6.963-1.187-9.654-3.844-2.701-2.679-3.843-5.561-3.843-8.941 0-3.618 1.142-6.76 3.843-9.371 2.69-2.668 5.833-3.878 9.654-3.878 3.832 0 6.963 1.21 9.823 3.878 2.962 2.61 4.386 5.753 4.386 9.37" />
</svg>
