<svg width="16" height="16" viewBox="0 0 16 16" xmlns="http://www.w3.org/2000/svg"><path d="M10.137 7.945c0-.3-.05-.6-.169-.87a2.03 2.03 0 0 0-.47-.701c-.186-.2-.414-.37-.675-.484a2.004 2.004 0 0 0-.825-.187c-.303 0-.572.073-.825.187-.26.114-.487.284-.69.484a2.1 2.1 0 0 0-.454.7 2.17 2.17 0 0 0-.17.871c0 .313.051.601.17.871.109.272.268.515.453.73.204.2.43.355.69.485.254.113.523.172.826.172.294 0 .572-.059.825-.172.261-.13.49-.285.674-.485.202-.215.353-.458.471-.73a2.14 2.14 0 0 0 .169-.87M6.029.904c-.06.115-.127.172-.228.198a.388.388 0 0 1-.304-.041.387.387 0 0 1-.201-.215c-.043-.114-.043-.214.017-.3a.404.404 0 0 1 .244-.215c.1-.028.21-.014.303.045a.354.354 0 0 1 .194.229c.042.112.042.213-.025.299m1.64-.342a.36.36 0 0 1-.26.214.442.442 0 0 1-.295-.044.393.393 0 0 1-.202-.215.383.383 0 0 1 .042-.313c.067-.13.143-.187.261-.2a.529.529 0 0 1 .286.042c.084.057.152.13.194.214.034.102.034.2-.025.302M9.227.304c.026.1.026.187-.034.272a.373.373 0 0 1-.21.185.379.379 0 0 1-.312 0A.338.338 0 0 1 8.47.518c-.033-.098-.033-.2.026-.284.06-.116.135-.187.227-.216.118-.027.219-.027.303.03.127.056.202.142.202.256m1.498.33c.06.084.043.185-.016.297a.423.423 0 0 1-.228.201.396.396 0 0 1-.31-.029.633.633 0 0 1-.203-.227.373.373 0 0 1 .025-.313.403.403 0 0 1 .236-.2c.11-.045.21-.03.311.028a.299.299 0 0 1 .185.242m1.373.572a.38.38 0 0 1-.033.3.299.299 0 0 1-.253.2c-.1.013-.202 0-.286-.044a.491.491 0 0 1-.203-.214.281.281 0 0 1 .034-.3.398.398 0 0 1 .253-.216.397.397 0 0 1 .286.06c.084.057.16.112.202.214m1.271.871c.058.086.026.186-.033.285-.068.116-.152.186-.27.2a.416.416 0 0 1-.27-.042.812.812 0 0 1-.201-.214c-.043-.088-.026-.2.016-.315a.366.366 0 0 1 .252-.187.41.41 0 0 1 .32.045.437.437 0 0 1 .186.228m1.087 1.169c.05.088.05.201-.018.302-.075.113-.16.186-.252.2a.415.415 0 0 1-.294-.057.366.366 0 0 1-.195-.185c-.06-.088-.042-.2.008-.316a.461.461 0 0 1 .278-.213.346.346 0 0 1 .287.055c.084.046.152.13.186.214m.798 1.401c.044.102.044.2-.016.301a.542.542 0 0 1-.227.2.306.306 0 0 1-.312-.03.356.356 0 0 1-.194-.228c-.025-.114-.025-.2.034-.3.06-.115.127-.2.228-.213.117-.015.21 0 .303.042.084.042.134.115.184.228m.565 1.587a.491.491 0 0 1-.05.298.403.403 0 0 1-.228.2.387.387 0 0 1-.303-.028.44.44 0 0 1-.202-.228.408.408 0 0 1 .041-.301.336.336 0 0 1 .245-.214.326.326 0 0 1 .304.03c.1.056.168.127.193.243m-6.566 9.155c.033.098.017.184-.026.284a.43.43 0 0 1-.219.2c-.083.044-.193.028-.311-.015a.433.433 0 0 1-.202-.242.366.366 0 0 1 .016-.3.36.36 0 0 1 .245-.187.42.42 0 0 1 .294 0c.118.073.195.159.203.26m6.7-7.256c-.041.099-.134.157-.227.199-.1.043-.201.028-.32-.013a.653.653 0 0 1-.202-.244c-.024-.114-.024-.214.034-.314.06-.1.127-.172.244-.2.101-.028.202-.028.287.028.108.057.168.13.201.242.042.087.042.2-.017.302M15.77 9.79a.371.371 0 0 1-.262.2.393.393 0 0 1-.286-.06.436.436 0 0 1-.194-.2c-.05-.085-.032-.197.026-.327a.463.463 0 0 1 .245-.185.415.415 0 0 1 .294.027c.117.057.177.13.202.243.042.101.025.2-.025.302m-.506 1.47c-.042.085-.126.142-.227.201-.109.027-.211.027-.294-.029a.401.401 0 0 1-.22-.244.45.45 0 0 1 .026-.3.49.49 0 0 1 .235-.214.477.477 0 0 1 .312.03.574.574 0 0 1 .203.241c.041.102.024.2-.035.315m-.766 1.343a.342.342 0 0 1-.244.213.33.33 0 0 1-.303-.03.393.393 0 0 1-.21-.227c-.035-.098-.017-.2.025-.313a.674.674 0 0 1 .244-.2.367.367 0 0 1 .304.028c.11.057.184.128.21.23a.333.333 0 0 1-.026.299m-1.161 1.255c-.068.116-.152.201-.27.228a.412.412 0 0 1-.27-.042.68.68 0 0 1-.201-.227c-.043-.1-.026-.2.016-.3a.411.411 0 0 1 .252-.214c.119 0 .22.014.32.057a.374.374 0 0 1 .186.2c.058.085.026.186-.033.298m-1.238.888c-.059.112-.126.182-.227.213-.1.044-.203.03-.32-.03a.359.359 0 0 1-.185-.242.384.384 0 0 1 .033-.3.36.36 0 0 1 .228-.199.297.297 0 0 1 .286.028c.11.057.185.13.21.229a.32.32 0 0 1-.025.3m-1.397.63a.403.403 0 0 1-.244.198.445.445 0 0 1-.304-.044.345.345 0 0 1-.185-.228.402.402 0 0 1 0-.313.452.452 0 0 1 .244-.185.448.448 0 0 1 .328.028c.084.056.161.128.185.228.026.1.026.214-.024.316m-3.065.312a.37.37 0 0 1-.227.214c-.11.042-.194.016-.328-.028a.488.488 0 0 1-.186-.228.347.347 0 0 1 .017-.315.583.583 0 0 1 .244-.2c.11-.03.203-.03.295.028a.48.48 0 0 1 .219.23.46.46 0 0 1-.034.299m-1.607-.312c-.06.098-.127.17-.228.198a.446.446 0 0 1-.304-.044.402.402 0 0 1-.201-.228c-.043-.112-.043-.214.017-.313a.4.4 0 0 1 .244-.185c.1-.029.21-.029.303.028.092.056.169.128.194.228a.33.33 0 0 1-.025.316m-1.457-.645c-.06.128-.126.186-.245.198a.481.481 0 0 1-.285-.041.59.59 0 0 1-.203-.214.281.281 0 0 1 .034-.3.437.437 0 0 1 .228-.213.402.402 0 0 1 .31.028.43.43 0 0 1 .204.229c.024.099.016.213-.043.313m-1.162-.843a.484.484 0 0 1-.236.2.374.374 0 0 1-.302-.043.446.446 0 0 1-.22-.227.462.462 0 0 1 .033-.3.476.476 0 0 1 .246-.2.425.425 0 0 1 .294.028c.1.057.176.142.201.229.043.113.043.214-.016.313m-1.187-1.257a.315.315 0 0 1-.228.2c-.092.045-.192.028-.294-.028-.101-.043-.16-.113-.203-.229a.466.466 0 0 1 .026-.298.406.406 0 0 1 .236-.2.317.317 0 0 1 .278.015c.118.055.185.126.219.24.043.1.025.216-.034.3m-.765-1.356c-.077.099-.161.172-.262.187-.11.027-.21 0-.286-.044a.459.459 0 0 1-.194-.199c-.058-.101-.042-.2.009-.33a.439.439 0 0 1 .227-.2.42.42 0 0 1 .32.043c.101.058.15.13.202.228.042.101.042.2-.016.315M.952 9.816a.42.42 0 0 1-.236.173.376.376 0 0 1-.303-.043c-.1-.045-.168-.1-.202-.217a.394.394 0 0 1 .042-.298c.034-.113.119-.172.22-.2.1-.028.21-.014.31.028a.446.446 0 0 1 .203.243c.024.1.017.2-.034.314M.767 8.118a.347.347 0 0 1-.236.2.381.381 0 0 1-.303-.029.467.467 0 0 1-.21-.23.345.345 0 0 1 .042-.3c.05-.098.125-.171.227-.2a.362.362 0 0 1 .294.029c.102.057.178.13.202.228.043.101.043.2-.016.302m.16-1.63a.45.45 0 0 1-.228.201.378.378 0 0 1-.303-.015.414.414 0 0 1-.194-.242.372.372 0 0 1 .026-.315.377.377 0 0 1 .245-.2.48.48 0 0 1 .286.043c.084.044.15.114.193.214a.373.373 0 0 1-.026.315m.548-1.573c-.051.131-.135.201-.244.215a.324.324 0 0 1-.286-.042.571.571 0 0 1-.203-.214C.7 4.789.7 4.689.767 4.56c.059-.114.134-.185.243-.2a.396.396 0 0 1 .287.029c.084.057.16.13.185.228.042.099.042.2-.008.298m.866-1.383a.415.415 0 0 1-.244.2.484.484 0 0 1-.31-.043.336.336 0 0 1-.203-.23.348.348 0 0 1 .034-.313c.042-.1.143-.157.235-.2a.39.39 0 0 1 .304.043c.1.057.168.13.219.228a.5.5 0 0 1-.035.315m1.112-1.172a.4.4 0 0 1-.235.2.457.457 0 0 1-.303-.029.334.334 0 0 1-.203-.227.412.412 0 0 1 .017-.315.473.473 0 0 1 .244-.187.305.305 0 0 1 .295.03.348.348 0 0 1 .219.23c.025.099.025.2-.034.298m1.163-.9a.34.34 0 0 1-.228.216c-.101.041-.202.027-.32-.029a.541.541 0 0 1-.194-.228c-.042-.1-.034-.2.026-.317a.52.52 0 0 1 .226-.198c.119-.029.21-.029.304.026.109.06.168.13.202.23.042.115.042.214-.016.3m1.414 12.255c-.06.1-.127.17-.228.2a.552.552 0 0 1-.304 0 .46.46 0 0 1-.227-.243.412.412 0 0 1 .026-.3.349.349 0 0 1 .261-.214c.1-.015.21 0 .303.042a.422.422 0 0 1 .194.214c.042.087.042.187-.025.301m1.48.414c-.041.114-.126.17-.227.215a.334.334 0 0 1-.286-.044.35.35 0 0 1-.209-.216.4.4 0 0 1 .024-.298.462.462 0 0 1 .227-.214c.102-.042.202-.029.321.014.084.057.15.13.185.229a.355.355 0 0 1-.034.314m-2.938-1.228a.4.4 0 0 1-.237.172c-.091.043-.193.028-.293-.03-.118-.042-.186-.113-.211-.23a.316.316 0 0 1 .025-.297.446.446 0 0 1 .227-.201.456.456 0 0 1 .304.03.52.52 0 0 1 .21.226.412.412 0 0 1-.025.33M2.77 11.387c.059-.099.127-.17.244-.229.118-.029.203-.029.295.029.117.058.177.13.22.244.024.113.016.2-.043.299-.042.115-.118.2-.228.215-.1.013-.185 0-.303-.044a.502.502 0 0 1-.21-.214c-.06-.085-.034-.2.025-.3m-.06-1.012c-.057.113-.142.183-.243.199a.463.463 0 0 1-.311-.03c-.084-.056-.17-.113-.21-.214a.323.323 0 0 1 .025-.313c.059-.1.125-.172.243-.2a.333.333 0 0 1 .303.013c.11.043.168.13.21.229.043.101.043.2-.016.316m-.37-1.502a.519.519 0 0 1-.245.186.402.402 0 0 1-.31-.028.4.4 0 0 1-.203-.229c-.042-.099-.025-.2.034-.3.068-.114.143-.184.253-.213.084-.03.184-.014.286.042.1.043.16.128.202.23.041.098.025.199-.018.312M14.01 5.545a.318.318 0 0 1-.018.301.37.37 0 0 1-.226.215.411.411 0 0 1-.31-.029.55.55 0 0 1-.204-.228.355.355 0 0 1 .034-.316.348.348 0 0 1 .227-.185.367.367 0 0 1 .295.028c.1.03.176.115.202.214m.387 1.871c-.059.101-.126.172-.245.2a.794.794 0 0 1-.31-.028.467.467 0 0 1-.203-.214c-.041-.099-.024-.2.043-.327a.389.389 0 0 1 .245-.214.326.326 0 0 1 .285.042c.11.042.185.128.211.243a.346.346 0 0 1-.026.298m-1.247-3.355a.318.318 0 0 1-.024.3.339.339 0 0 1-.219.2.349.349 0 0 1-.311-.014.544.544 0 0 1-.203-.228c-.041-.101-.024-.2.018-.316.06-.098.125-.171.227-.2a.36.36 0 0 1 .32.029c.085.057.152.13.192.229m-1.135-1.114c.042.1.025.186-.017.298a.509.509 0 0 1-.227.201c-.102.044-.203.03-.32-.029a.352.352 0 0 1-.186-.228c-.042-.085-.024-.2.035-.299a.344.344 0 0 1 .227-.2.337.337 0 0 1 .286.014c.109.057.168.128.202.243m-1.346-.758a.273.273 0 0 1 0 .229.442.442 0 0 1-.11.185.522.522 0 0 1-.22.101.318.318 0 0 1-.226-.041c-.102-.045-.186-.116-.211-.23-.051-.1-.035-.185.008-.287.1-.171.228-.241.405-.241.185.014.293.116.354.284m-1.516-.414c.041.1.034.2-.01.301a.53.53 0 0 1-.234.214.35.35 0 0 1-.312-.028.377.377 0 0 1-.21-.215.408.408 0 0 1 .025-.329.633.633 0 0 1 .227-.2.38.38 0 0 1 .303.029c.1.059.168.13.21.228m-1.708.33c-.06.112-.144.185-.245.2a.389.389 0 0 1-.286-.057.385.385 0 0 1-.202-.185c-.059-.088-.042-.202.033-.316.044-.114.11-.171.229-.214a.367.367 0 0 1 .294.043.288.288 0 0 1 .202.227c.033.102.017.2-.025.301m-1.777.67a.42.42 0 0 1-.227-.013c-.067-.042-.126-.07-.169-.129a.503.503 0 0 1-.117-.198.361.361 0 0 1 .042-.23.566.566 0 0 1 .219-.2c.11-.043.21-.029.329.017a.394.394 0 0 1 .21.397c-.009.185-.093.3-.287.357m-1.01.516a.45.45 0 0 1-.244.214.392.392 0 0 1-.303-.044c-.093-.044-.152-.128-.185-.243a.377.377 0 0 1 .033-.299c.059-.101.126-.172.228-.2a.404.404 0 0 1 .311.028c.101.057.177.129.185.243.034.114.034.2-.026.3m-1.085.814a.683.683 0 0 1-.025.3.433.433 0 0 1-.22.2c-.108.042-.193.028-.31-.043-.084-.059-.16-.13-.186-.228a.319.319 0 0 1 .025-.3.354.354 0 0 1 .227-.201c.102-.042.203-.028.32.014a.425.425 0 0 1 .17.258m-.902 1.742a.349.349 0 0 1-.202.2.35.35 0 0 1-.311-.014.436.436 0 0 1-.202-.242c-.043-.115-.026-.2.017-.302.059-.098.125-.172.243-.2a.383.383 0 0 1 .303.043c.11.059.186.13.194.228a.318.318 0 0 1-.042.287m-.329 1.4c-.075.1-.159.17-.25.2a.437.437 0 0 1-.305-.03c-.084-.07-.16-.127-.185-.228-.059-.1-.042-.2.017-.313a.388.388 0 0 1 .253-.2.539.539 0 0 1 .286.042c.1.043.16.13.202.229.041.086.025.2-.018.3m12.056 1.64c-.059.102-.126.173-.245.202-.1.044-.201.03-.302-.014-.211-.142-.277-.314-.194-.542a.461.461 0 0 1 .237-.201c.117-.042.201-.042.302.015a.52.52 0 0 1 .228.243c.034.084.034.2-.026.298m-.405 1.488a.389.389 0 0 1-.226.199.394.394 0 0 1-.31-.03.481.481 0 0 1-.187-.229.372.372 0 0 1 .025-.284c.06-.101.134-.186.228-.215.1-.041.202-.041.286.014.119.043.184.13.22.229.041.101.023.2-.036.316m-.782 1.37a.464.464 0 0 1-.227.213c-.101.057-.202.043-.303 0a.428.428 0 0 1-.201-.242c-.043-.114-.043-.214.016-.315.041-.1.135-.17.235-.214.094-.043.194-.029.313.03a.44.44 0 0 1 .192.228c.051.099.034.2-.025.3m-4.68 2.028a.447.447 0 0 1 .227-.215.416.416 0 0 1 .294.03c.118.056.177.128.22.228a.343.343 0 0 1-.017.314c-.06.114-.127.17-.228.2a.396.396 0 0 1-.311-.044c-.1-.042-.16-.127-.203-.228a.336.336 0 0 1 .018-.285m3.569-.87c-.059.099-.126.171-.227.2a.384.384 0 0 1-.304-.029.439.439 0 0 1-.21-.245c-.042-.085-.034-.186.009-.284a.506.506 0 0 1 .244-.215.38.38 0 0 1 .303.015c.11.056.185.143.21.242a.35.35 0 0 1-.025.315m-1.43.828c-.044.1-.11.17-.229.215a.456.456 0 0 1-.302-.028.482.482 0 0 1-.211-.231.446.446 0 0 1 .025-.313.47.47 0 0 1 .228-.2c.1-.043.202-.043.286.014a.505.505 0 0 1 .236.243c.042.114.024.199-.033.3m1.085-2.343a.33.33 0 0 1-.21.215.371.371 0 0 1-.328-.015.398.398 0 0 1-.202-.243.342.342 0 0 1 .024-.298.413.413 0 0 1 .227-.215c.102-.043.201-.028.303.014.101.057.17.143.211.243.034.099.034.214-.025.3m-7.156-.729c.034.1.018.201-.025.299a.456.456 0 0 1-.22.186c-.1.043-.192.028-.31-.042-.102-.028-.169-.114-.211-.215a.341.341 0 0 1 .025-.298.438.438 0 0 1 .245-.214.379.379 0 0 1 .286.027c.125.07.2.156.21.257m1.146 1.387a.5.5 0 0 1-.246.2.382.382 0 0 1-.286-.031.418.418 0 0 1-.203-.228c-.041-.113-.041-.213.035-.3.043-.1.11-.171.227-.2.084-.042.203-.027.295.029.1.042.16.116.202.228.034.101.017.2-.024.302M3.629 8.09c-.042.113-.118.168-.228.214a.382.382 0 0 1-.302-.046.331.331 0 0 1-.202-.227c-.043-.086-.025-.2.017-.3a.428.428 0 0 1 .226-.199.394.394 0 0 1 .286.028.478.478 0 0 1 .228.229c.034.114.034.213-.025.3m1.044-2.942a.349.349 0 0 1-.244.214.373.373 0 0 1-.304-.03.383.383 0 0 1-.201-.242.385.385 0 0 1 .033-.3.446.446 0 0 1 .228-.2.411.411 0 0 1 .311.043c.101.057.177.13.202.228.043.101.025.2-.025.287m6.92-.458a.395.395 0 0 1-.227.186c-.102.041-.202.028-.312-.029a.359.359 0 0 1-.202-.214.362.362 0 0 1 .017-.3.448.448 0 0 1 .243-.213.394.394 0 0 1 .287.028.454.454 0 0 1 .211.229.35.35 0 0 1-.017.313m-1.23-.843a.342.342 0 0 1-.226.186c-.11.029-.211.029-.295-.029a.388.388 0 0 1-.22-.227.292.292 0 0 1 .035-.286.351.351 0 0 1 .227-.214c.1-.031.202-.031.286.029.11.056.185.127.227.242.026.085.026.2-.034.299m2.679 3.186c.024.1.024.2-.035.285-.05.144-.144.215-.235.229-.1.014-.203 0-.303-.043a.486.486 0 0 1-.22-.214.332.332 0 0 1 .051-.301.456.456 0 0 1 .235-.228c.102-.028.22-.028.304.028a.4.4 0 0 1 .203.244m-2.585 5.313a.425.425 0 0 1-.228.2.41.41 0 0 1-.506-.27.387.387 0 0 1 .027-.288.486.486 0 0 1 .235-.213.402.402 0 0 1 .312.041c.084.059.16.13.184.23.043.085.034.2-.024.3m-1.49.44c-.042.117-.11.188-.227.217-.102.041-.203.013-.304-.03a.413.413 0 0 1-.21-.228.453.453 0 0 1 .025-.314.436.436 0 0 1 .236-.185c.093-.044.194-.03.294.03a.459.459 0 0 1 .219.227c.025.1.025.186-.033.284m-5.11-3.254c-.06.112-.144.17-.228.228a.414.414 0 0 1-.32-.03.457.457 0 0 1-.194-.228.342.342 0 0 1 .017-.314.45.45 0 0 1 .236-.213.453.453 0 0 1 .303.028c.1.056.16.144.202.228.043.115.043.2-.017.301m.043-3.03c-.068.13-.161.2-.261.2a.708.708 0 0 1-.295-.028.405.405 0 0 1-.21-.199.306.306 0 0 1 .041-.301.42.42 0 0 1 .236-.229c.101-.028.22-.028.303.028.102.045.186.116.211.232.033.099.033.2-.025.298M5.91 4.06a.43.43 0 0 1-.227.214c-.118.028-.21.028-.311-.03a.443.443 0 0 1-.22-.242.42.42 0 0 1 .043-.298.397.397 0 0 1 .219-.2c.11-.044.21-.029.329.028a.375.375 0 0 1 .167.528m2.998-.928c.05.085.033.186-.009.284a.387.387 0 0 1-.228.215.436.436 0 0 1-.32-.028c-.1-.043-.151-.128-.185-.228-.042-.1-.025-.201.034-.3a.438.438 0 0 1 .227-.213.341.341 0 0 1 .295.027c.1.057.16.127.186.243m3.586 2.728c-.06.099-.126.171-.228.2-.1.042-.201.042-.286-.015a.408.408 0 0 1-.227-.227.454.454 0 0 1 .025-.316.402.402 0 0 1 .236-.2.369.369 0 0 1 .295.028c.1.059.169.13.201.228.042.1.025.2-.016.302M7.24 12.715a.613.613 0 0 1-.244.2.353.353 0 0 1-.294-.013c-.119-.073-.186-.144-.22-.243-.04-.1-.024-.2.034-.314a.33.33 0 0 1 .227-.186c.093-.057.194-.043.313.014.084.042.159.13.202.228a.35.35 0 0 1-.018.314m5.355-2.527c-.06.1-.144.187-.244.214a.303.303 0 0 1-.295-.014.394.394 0 0 1-.218-.228c-.044-.101-.026-.2.017-.315a.486.486 0 0 1 .243-.2.314.314 0 0 1 .294 0 .442.442 0 0 1 .22.242.316.316 0 0 1-.017.301M7.359 3.49a.465.465 0 0 1-.228.215.36.36 0 0 1-.32-.015.436.436 0 0 1-.21-.244.402.402 0 0 1 .025-.299c.06-.1.143-.186.227-.228.119-.029.22-.029.32.028.093.057.151.13.21.242a.42.42 0 0 1-.024.301m5.683 5.326a.538.538 0 0 1-.246.187c-.117.056-.201.042-.302-.015-.102-.056-.185-.13-.21-.228a.415.415 0 0 1 .016-.315c.05-.099.127-.156.235-.2a.38.38 0 0 1 .304 0 .44.44 0 0 1 .21.244c.043.1.043.214-.007.327m-1.988-2.77c.042.099.025.187-.017.3a.522.522 0 0 1-.227.2.346.346 0 0 1-.311-.015.466.466 0 0 1-.202-.242c-.043-.115-.043-.2.017-.299.05-.1.143-.171.244-.214a.405.405 0 0 1 .294.028c.1.057.168.141.202.242m-4.942 4.356a.422.422 0 0 1-.244.2.38.38 0 0 1-.303-.028.399.399 0 0 1-.21-.23.514.514 0 0 1 .025-.313.394.394 0 0 1 .244-.186c.101-.043.202-.029.32.028.085.057.152.13.185.229.05.1.042.2-.017.3m-.8-1.284c-.059.099-.125.17-.226.2-.102.028-.203 0-.32-.059a.405.405 0 0 1-.194-.214c-.034-.113-.034-.214.025-.314.058-.087.126-.158.228-.185a.322.322 0 0 1 .303.027c.118.044.185.13.21.23.042.1.034.2-.025.315m.345-2.759c-.06.13-.134.2-.244.215a.373.373 0 0 1-.303-.043.361.361 0 0 1-.202-.214c-.043-.1-.026-.2.042-.313a.352.352 0 0 1 .244-.2c.1 0 .202.015.302.057.102.041.16.112.203.2.043.099.009.2-.042.298M9.866 4.99c.043.099.035.185-.016.285a.364.364 0 0 1-.227.2.403.403 0 0 1-.31-.029.537.537 0 0 1-.204-.228.428.428 0 0 1 .033-.315.383.383 0 0 1 .229-.186c.109-.028.21-.028.294.03a.346.346 0 0 1 .201.243m.717 5.44a.461.461 0 0 1-.244.188c-.085.041-.202.026-.295-.03-.1-.057-.178-.129-.202-.23a.369.369 0 0 1 .008-.313.432.432 0 0 1 .244-.186.449.449 0 0 1 .303.028.46.46 0 0 1 .21.229c.034.115.017.2-.024.315m-1.39.786c-.067.113-.151.184-.252.184a.42.42 0 0 1-.303-.042.574.574 0 0 1-.202-.2c-.042-.085-.025-.186.033-.314a.562.562 0 0 1 .228-.214.473.473 0 0 1 .311.028c.1.071.16.144.203.243.042.1.042.2-.018.315m-1.742-.03c-.068.115-.152.172-.236.185a.382.382 0 0 1-.286-.028.5.5 0 0 1-.202-.215.353.353 0 0 1 .016-.313.321.321 0 0 1 .253-.198c.101-.015.219-.015.303.041.084.044.152.13.202.215.026.114.026.2-.05.313m.9-6.284a.44.44 0 0 1-.227.2c-.101.044-.193.044-.311-.014a.437.437 0 0 1-.185-.243.314.314 0 0 1 .025-.299c.042-.1.143-.171.244-.214a.445.445 0 0 1 .303.028.44.44 0 0 1 .194.228.374.374 0 0 1-.042.314m-3.183 2.8a.337.337 0 0 1-.227.214c-.1.028-.201.028-.287-.028a.397.397 0 0 1-.209-.228.33.33 0 0 1 .042-.316.404.404 0 0 1 .21-.2c.1-.027.21-.027.31.028.103.043.161.13.203.243.035.101.018.2-.042.288m6.197 1.499c-.051.128-.144.2-.254.214a.451.451 0 0 1-.302-.043.46.46 0 0 1-.203-.2.43.43 0 0 1 .042-.329c.076-.114.161-.186.262-.2.102 0 .201 0 .286.058.084.042.16.113.202.2.026.1.026.199-.033.3M6.71 5.345a.438.438 0 0 1-.228.2.32.32 0 0 1-.303-.013.42.42 0 0 1-.193-.243.318.318 0 0 1 .025-.299.371.371 0 0 1 .227-.215c.102-.027.203-.027.287.029a.425.425 0 0 1 .218.228.41.41 0 0 1-.033.313m4.857 2.071c.043.101.018.2-.024.288-.06.126-.144.199-.244.213a.338.338 0 0 1-.286-.043.47.47 0 0 1-.203-.2.463.463 0 0 1 .034-.329.387.387 0 0 1 .226-.2.37.37 0 0 1 .296.028c.117.043.177.13.201.243m-.968.53c0 .372-.075.727-.202 1.042-.143.33-.31.629-.555.871-.244.243-.53.443-.842.572a2.345 2.345 0 0 1-1.002.213 2.45 2.45 0 0 1-1.018-.213 2.332 2.332 0 0 1-.809-.572 2.626 2.626 0 0 1-.564-.871 2.671 2.671 0 0 1-.193-1.043c0-.371.06-.729.193-1.056.136-.33.32-.629.564-.871.227-.242.497-.442.809-.572a2.45 2.45 0 0 1 1.018-.213c.354 0 .699.07 1.002.213.312.13.598.33.842.572.244.242.412.54.555.871.127.327.202.685.202 1.056m-1.759.086c0 .2-.084.37-.26.53a.809.809 0 0 1-.582.227.771.771 0 0 1-.572-.228.708.708 0 0 1-.228-.53c0-.214.068-.4.228-.555a.77.77 0 0 1 .572-.23c.227 0 .413.072.582.23.176.155.26.341.26.556" fill="#000" fill-rule="evenodd"/></svg>
