<?xml version="1.0" encoding="UTF-8"?>
<svg width="268px" height="267px" viewBox="0 0 268 267" version="1.1"
     xmlns="http://www.w3.org/2000/svg"
     xmlns:xlink="http://www.w3.org/1999/xlink">
    <title>Background</title>
    <defs>
        <radialGradient cx="50%" cy="50%" fx="50%" fy="50%" r="50%"
                        gradientTransform="translate(0.500000,0.500000),scale(0.995084,1.000000),rotate(90.000000),translate(-0.500000,-0.500000)"
                        id="radialGradient-1">
            <stop stop-color="#886433" stop-opacity="0.195626639"
                  offset="0%"></stop>
            <stop stop-color="#886433" stop-opacity="0" offset="100%"></stop>
        </radialGradient>
    </defs>
    <g id="Favicon" stroke="none" stroke-width="1" fill="none"
       fill-rule="evenodd">
        <path d="M170.061704,133.08011 C170.061704,128.004621 169.202601,122.951739 167.2131,118.38493 C165.212295,113.772904 162.668898,109.680861 159.266399,106.560961 C156.146499,103.18107 152.29184,100.309858 147.883286,98.3881803 C143.621684,96.4665028 138.93053,95.2456724 133.96808,95.2456724 C128.847375,95.2456724 124.314477,96.4665028 120.041571,98.3881803 C115.644321,100.309858 111.823574,103.18107 108.387163,106.560961 C105.267263,109.680861 102.576914,113.772904 100.734365,118.38493 C98.7335595,122.951739 97.8857606,128.004621 97.8857606,133.08011 C97.8857606,138.359071 98.7335595,143.219784 100.734365,147.77529 C102.576914,152.353404 105.267263,156.468055 108.387163,160.08533 C111.823574,163.465221 115.644321,166.076442 120.041571,168.269415 C124.314477,170.179788 128.847375,171.174539 133.96808,171.174539 C138.93053,171.174539 143.621684,170.179788 147.883286,168.269415 C152.29184,166.076442 156.146499,163.465221 159.266399,160.08533 C162.668898,156.468055 165.212295,152.353404 167.2131,147.77529 C169.202601,143.219784 170.061704,138.359071 170.061704,133.08011 M100.734365,14.2639245 C99.7396141,16.2082099 98.5979117,17.1690486 96.8910099,17.621208 C95.33106,18.1072793 93.4772065,17.8811996 91.7703048,16.9203609 C90.074707,16.2082099 88.9330046,14.7160839 88.3678053,13.2917818 C87.6443503,11.3701043 87.6443503,9.68581057 88.6504049,8.2389005 C89.6451556,6.31722306 90.7868581,5.35638435 92.7763594,4.61032134 C94.4719572,4.13555397 96.3145067,4.37293766 97.8857606,5.35638435 C99.4457105,6.07983938 100.734365,7.50414148 101.163916,9.22234719 C101.864763,11.1214167 101.864763,12.8283184 100.734365,14.2639245 M128.429128,8.49889215 C127.434377,10.6466493 126.010075,11.596184 124.020574,12.1161673 C122.460624,12.342247 120.753722,12.342247 119.04682,11.3701043 C117.48687,10.6466493 116.356472,9.44842689 115.644321,7.74152516 C115.21477,6.07983938 115.21477,4.37293766 116.356472,2.46256421 C117.48687,0.280895115 118.764221,-0.691247588 120.753722,-0.906023302 C122.178024,-1.15471097 123.89623,-0.906023302 125.580524,-0.205176236 C127.004826,0.755662482 128.146528,1.98779684 128.847375,3.41209894 C129.423879,5.11900066 129.423879,6.79199043 128.429128,8.49889215 M154.710893,4.13555397 C155.140444,5.83115171 155.140444,7.27806178 154.13439,8.72497185 C153.433543,10.1831859 152.29184,11.1214167 150.596242,11.8335677 C148.889341,12.5909347 147.182439,12.5909347 145.328585,11.8335677 C143.621684,11.1214167 142.355637,9.68581057 141.914782,7.74152516 C141.349583,6.07983938 141.349583,4.37293766 142.355637,2.94863556 C143.350388,0.993046165 144.627738,-0.205176236 146.176384,-0.691247588 C148.17719,-1.15471097 149.872787,-1.15471097 151.297089,-0.205176236 C153.433543,0.755662482 154.710893,2.21387654 154.710893,4.13555397 M179.986603,9.68581057 C180.992658,11.1214167 180.710058,12.8283184 179.715307,14.7160839 C179.01446,16.2082099 177.590158,17.4064323 175.871953,18.1072793 C174.176355,18.5933507 172.469453,18.5933507 170.626904,17.621208 C169.202601,16.6829772 168.196547,15.4847548 167.2131,13.7891571 C166.500949,11.8335677 166.794853,10.1831859 167.631348,8.49889215 C168.626098,6.79199043 169.926057,5.59376803 171.621654,5.11900066 C173.464204,4.37293766 175.159802,4.61032134 176.866703,5.59376803 C178.573605,6.31722306 179.715307,7.74152516 179.986603,9.68581057 M203.148468,19.3281097 C203.57802,21.0124035 203.57802,22.7193052 202.594573,24.392295 C201.73547,26.5626601 200.164216,27.5121948 198.321667,27.7608825 C196.626069,27.9982661 194.919167,27.7608825 193.494865,27.0374274 C192.070563,26.0991967 190.793213,25.104446 190.069758,23.4201523 C189.368911,21.7132505 189.368911,20.0515647 190.646261,18.367271 C191.799267,16.2082099 193.212265,15.2021552 194.919167,14.7160839 C196.626069,14.5013081 198.321667,14.7160839 199.745969,15.7221385 C201.158967,16.6829772 202.447621,17.621208 203.148468,19.3281097 M224.603432,34.0345941 C225.586878,35.4815042 225.044287,37.1771019 224.038232,38.8387877 C222.89653,40.7943771 221.472228,41.9812955 219.482726,42.2186792 C217.775825,42.4560629 216.068923,42.2186792 214.938524,41.5065281 C213.796822,40.7943771 212.530776,39.324859 211.536025,37.889253 C210.81257,36.4197349 211.106474,34.5093615 211.818625,32.57638 C212.960327,30.6547026 214.520277,29.7051679 216.068923,29.4338722 C218.069728,28.9591049 219.77663,29.1964885 221.472228,30.1912392 C222.89653,31.140774 224.038232,32.3276924 224.603432,34.0345941 M242.938495,53.7600478 C243.77499,55.2408698 243.77499,57.1512433 242.644592,58.858145 C241.378545,60.7572144 239.954243,61.9893488 238.382989,62.2380365 C236.404792,62.4641162 234.969186,62.2380365 233.42054,61.2658938 C231.984934,60.7572144 230.865839,59.558992 230.142384,58.1459939 C229.13633,56.6651719 229.430233,54.7661024 230.278032,52.821817 C231.555382,50.9227476 232.990988,49.6906132 234.969186,49.2158458 C236.687391,48.7297745 238.382989,49.2158458 239.807291,50.1540766 C241.220289,50.9227476 242.373296,52.3470497 242.938495,53.7600478 M256.412845,77.4079842 C257.147604,79.114886 257.147604,80.7765717 256.14155,82.4834735 C255.158103,83.9077756 254.005096,85.105998 252.309499,85.863365 C250.602597,86.575516 248.601792,86.575516 247.053146,85.3546856 C245.357548,84.6312306 244.351493,83.2069285 243.77499,81.5000268 C243.345439,79.5783493 243.345439,78.1314393 244.351493,76.4471455 C245.357548,74.5028601 246.487946,73.078558 248.194848,72.8411743 C250.173045,72.5924867 251.744299,72.8411743 253.304249,73.5533254 C254.717247,74.2654764 255.565046,75.4863068 256.412845,77.4079842 M265.953408,104.187125 C266.224704,105.826202 265.953408,107.307024 265.094306,109.217398 C264.382155,110.69822 263.104804,111.885138 261.262255,112.597289 C259.826649,113.072057 257.848451,113.072057 256.14155,112.111218 C254.434648,111.161683 253.428593,109.929549 252.727746,108.267863 C252.309499,106.312274 252.580794,104.639284 253.428593,103.18107 C254.152048,101.282 255.565046,100.083778 257.554548,99.5750987 C259.261449,98.8516436 260.979655,99.0890273 262.686557,100.083778 C264.382155,101.033313 265.523857,102.231535 265.953408,104.187125 M155.140444,258.667382 C155.69434,260.329068 155.423044,261.775978 154.710893,263.471576 C153.716142,265.144566 152.710087,266.128013 151.01449,266.840164 C149.601492,267.574923 147.747638,267.314931 145.758137,266.591476 C144.062539,265.641941 142.920837,264.183727 142.355637,262.510737 C141.643486,260.577756 141.914782,258.893462 142.626933,257.446552 C143.621684,255.762258 144.763386,254.778812 146.752887,254.29274 C148.459789,253.580589 150.313643,253.806669 151.726641,254.29274 C153.716142,255.513571 155.004796,256.960481 155.140444,258.667382 M268.214205,136.233922 C267.513358,137.895608 265.953408,138.879054 264.382155,139.579901 C262.686557,140.31466 260.979655,140.065973 258.97885,139.365126 C257.554548,138.359071 256.412845,136.934769 255.565046,135.250475 C255.158103,133.328798 255.158103,131.644504 256.14155,129.948906 C257.147604,128.275916 258.278003,127.043782 260.2562,126.569015 C261.963102,126.105551 263.670003,126.105551 265.094306,127.043782 C266.925551,128.004621 267.931606,129.236755 268.496805,131.135825 C269.208956,132.605343 269.208956,134.515716 268.214205,136.233922 M265.094306,164.188676 C264.088251,166.076442 262.686557,167.082497 260.685751,167.557264 C258.97885,167.794648 257.271948,167.557264 255.85895,166.562513 C254.434648,165.850362 253.304249,164.65214 252.580794,163.182622 C251.744299,161.747016 252.038203,159.85925 253.02165,157.666277 C254.005096,156.241975 255.158103,155.247224 257.147604,154.535073 C258.97885,154.049002 260.685751,154.29769 262.110054,154.998537 C264.088251,155.959375 265.094306,157.19151 265.523857,159.090579 C266.224704,160.797481 265.953408,162.481775 265.094306,164.188676 M256.571101,189.000923 C255.85895,190.436529 254.434648,191.386064 252.727746,192.392119 C250.896501,192.844278 249.166991,192.844278 247.765297,191.906048 C245.764491,190.899993 244.781045,189.713074 244.068894,187.780093 C243.639342,185.86972 243.77499,184.422809 244.498445,182.715908 C245.493196,181.054222 246.759242,179.810784 248.466144,179.109937 C250.173045,178.623865 251.744299,178.872553 253.733801,179.607312 C255.158103,180.556847 256.412845,182.015061 257.147604,183.68805 C257.848451,185.394952 257.554548,187.056638 256.571101,189.000923 M243.639342,211.654109 C242.938495,213.564483 241.378545,214.762705 239.524692,215.248776 C237.806486,215.960927 236.099584,215.734848 234.403987,214.762705 C232.697085,214.061858 231.555382,212.626252 230.865839,210.91935 C230.278032,209.257664 230.571936,207.550763 231.284087,205.640389 C232.561437,204.182175 233.691835,202.995257 235.398737,202.271802 C237.105639,201.751818 238.812541,201.751818 240.530746,202.735265 C242.373296,203.696104 243.639342,204.894326 244.068894,206.601228 C244.781045,208.511601 244.498445,210.218503 243.639342,211.654109 M224.038232,232.837777 C222.89653,234.793366 221.472228,236.228972 219.482726,236.692436 C217.775825,236.941123 216.068923,236.692436 214.938524,235.980285 C213.796822,235.268134 212.530776,233.843832 211.536025,232.13693 C210.81257,230.46394 211.106474,228.757038 211.818625,227.084049 C212.960327,224.913683 214.520277,223.952845 216.068923,223.466773 C218.069728,223.466773 219.77663,223.715461 221.472228,224.438916 C222.89653,225.139763 224.038232,226.326682 224.603432,227.7962 C225.586878,229.24311 225.044287,230.938707 224.038232,232.837777 M203.148468,247.815557 C202.165022,249.714626 201.023319,250.901545 199.316417,251.421528 C197.62082,252.156287 195.902614,251.907599 193.913113,250.901545 C192.206211,249.963314 191.358412,248.776396 190.793213,246.83211 C190.374965,245.15912 190.374965,243.452219 191.358412,241.767925 C192.206211,240.072327 193.494865,238.874105 195.201767,238.410641 C196.897365,237.687186 198.468618,237.935874 200.028568,238.874105 C201.882422,239.834944 203.148468,241.067078 203.57802,242.740068 C204.290171,244.446969 204.143219,246.097351 203.148468,247.815557 M179.57966,258.429999 C178.573605,260.091685 177.296255,261.289907 175.453705,261.775978 C173.882451,262.03597 172.039902,262.03597 170.333,261.041219 C168.626098,260.091685 167.631348,258.893462 167.2131,257.18656 C166.500949,255.513571 166.500949,253.806669 167.2131,251.907599 C168.196547,250.449385 169.632153,249.262467 171.327751,248.776396 C173.045956,248.301628 174.888506,248.301628 176.866703,249.262467 C178.279701,250.200698 179.57966,251.421528 179.986603,253.105822 C180.416155,254.778812 180.416155,256.711793 179.57966,258.429999 M127.863929,263.697656 C127.004826,265.641941 125.580524,266.840164 124.020574,267.314931 C122.178024,268.027082 120.753722,267.574923 118.492925,266.840164 C117.057319,265.890629 116.062568,264.669798 115.350417,262.985505 C114.638266,261.289907 114.638266,259.616917 115.644321,257.672632 C116.650376,256.225722 118.063374,255.038803 119.758971,254.29274 C121.612825,253.806669 123.184079,253.806669 124.732725,254.778812 C126.439627,255.762258 127.716977,256.960481 128.429128,258.667382 C128.847375,260.577756 128.553472,262.03597 127.863929,263.697656 M100.734365,258.429999 C99.7396141,260.091685 98.5979117,261.289907 96.8910099,261.775978 C95.33106,262.03597 93.4772065,262.03597 91.7703048,261.041219 C90.074707,260.091685 88.9330046,258.893462 88.3678053,257.18656 C87.6443503,255.298795 87.6443503,253.580589 88.6504049,251.907599 C89.6451556,250.449385 90.7868581,249.262467 92.7763594,248.776396 C94.4719572,248.301628 96.3145067,248.301628 97.8857606,249.262467 C99.4457105,250.200698 100.734365,251.421528 101.163916,253.105822 C101.864763,254.778812 101.864763,256.711793 100.734365,258.429999 M76.1481976,247.555565 C75.142143,249.714626 74.0343524,250.686769 72.0222431,250.901545 C70.3153414,251.161536 68.6084397,250.901545 67.2067455,250.200698 C65.7711395,249.262467 64.7876928,248.301628 63.7816381,246.594727 C63.080791,244.910433 63.080791,243.203531 64.3581413,241.541845 C65.2172442,239.834944 66.7658901,238.410641 68.2014962,237.935874 C69.9083979,237.449803 71.4570439,237.449803 73.4465452,238.410641 C75.142143,239.360176 76.4194932,240.81839 76.8716526,242.2653 C77.2899001,243.93829 77.1542523,245.871272 76.1481976,247.555565 M56.5357838,233.323848 C55.8349367,234.793366 54.128035,235.980285 52.5680851,236.692436 C50.8498794,237.212419 49.1542816,236.941123 47.4586839,235.980285 C45.7517822,235.268134 44.6213837,233.843832 43.7622808,232.13693 C43.3214254,230.46394 43.615329,228.757038 44.3161761,227.084049 C45.3222307,225.377147 46.7352288,224.438916 48.4647385,223.715461 C50.1490323,223.240694 51.855934,223.466773 53.4271879,224.178924 C55.1114817,225.139763 56.400136,226.575369 56.8183834,228.044887 C57.5418384,229.943957 57.5418384,231.650858 56.5357838,233.323848 M36.5164265,212.117573 C35.8042754,214.061858 34.3686693,215.011393 32.6617676,215.497464 C31.1131217,216.254831 29.4175239,215.960927 27.6993182,215.011393 C25.9924165,214.299242 25.0089698,213.112323 24.2855148,211.156734 C23.8672673,209.732432 24.0029152,207.788146 24.7150662,206.126461 C25.7211209,204.419559 26.9984712,203.221336 28.7053729,202.735265 C30.5479224,202.034418 31.9722245,202.271802 33.3965266,202.995257 C35.374724,203.933487 36.5164265,205.120406 37.0816257,207.064691 C37.8050808,208.748985 37.5111771,210.69327 36.5164265,212.117573 M23.5959717,189.238307 C22.3073174,190.899993 20.8830153,192.132127 19.1874176,192.392119 C17.3335641,192.844278 15.6379663,192.392119 14.349312,191.646056 C12.9363139,190.899993 11.8059154,189.713074 11.0824604,188.288772 C10.0990137,186.581871 10.3816133,184.908881 11.2294122,182.715908 C12.2128589,181.054222 13.637161,179.810784 15.0614631,179.358624 C16.9040126,178.872553 18.7465622,179.109937 20.4647679,180.070775 C22.1716696,181.054222 23.0081645,182.263748 23.8672673,183.91413 C24.5794184,185.621032 24.5794184,187.294022 23.5959717,189.238307 M15.0614631,164.65214 C14.2023602,166.076442 12.6424103,167.082497 11.0824604,167.557264 C9.37555868,168.032031 7.38605733,167.794648 5.97305922,166.833809 C4.26615749,166.076442 3.135759,165.138211 2.55925577,163.182622 C2.12970434,161.283552 2.41230396,159.576651 3.27140682,158.152349 C3.84791005,156.241975 5.27221215,155.247224 6.97911387,154.772457 C8.67471161,154.29769 10.5172612,154.535073 12.2128589,155.247224 C13.9197606,156.241975 15.0614631,157.666277 15.6379663,159.339267 C16.0449098,161.046169 15.9318699,162.719158 15.0614631,164.65214 M11.9415633,135.985234 C11.2294122,137.658224 9.8051101,138.879054 7.96256056,139.365126 C6.25565884,139.839893 4.54875712,139.839893 2.84185539,138.879054 C1.14625765,137.895608 0.0158591614,136.697385 -0.707595874,134.990483 C-1.2840991,133.328798 -0.990195497,131.644504 0.0158591614,129.948906 C0.852354046,128.275916 2.12970434,127.043782 3.84791005,126.569015 C5.54350779,126.105551 7.25040951,126.105551 8.79905545,127.043782 C10.5172612,128.004621 11.8059154,129.236755 12.2128589,130.898441 C12.9363139,132.605343 12.9363139,134.278332 11.9415633,135.985234 M14.6319117,108.493943 C13.637161,110.178237 12.4954585,111.161683 10.7998608,111.885138 C9.10426304,112.597289 7.38605733,112.348602 5.67915561,111.625147 C4.11920569,110.69822 2.84185539,109.217398 2.41230396,107.533104 C1.83580073,105.826202 1.83580073,103.927133 2.84185539,102.231535 C3.84791005,100.309858 5.27221215,99.326411 6.97911387,98.8516436 C8.67471161,98.602956 10.3816133,98.8516436 11.8059154,99.5750987 C13.2189136,100.309858 14.349312,101.496776 15.0614631,103.18107 C15.6379663,104.887972 15.6379663,106.787041 14.6319117,108.493943 M23.8672673,81.9634902 C23.0081645,84.1677672 21.5951664,85.3546856 19.7526168,85.5920693 C18.0457151,86.1007486 16.3388134,85.863365 14.9258153,84.8686143 C13.5015132,83.9077756 12.2128589,82.7208572 11.5120118,81.2626431 C10.7998608,79.815733 10.7998608,78.1314393 11.9415633,75.9723782 C12.9363139,74.0393967 14.2023602,72.8411743 16.0449098,72.5924867 C17.7631155,72.1177193 19.4587132,72.355103 20.8830153,73.078558 C22.3073174,74.0393967 23.5959717,75.2602271 24.0029152,76.9332169 C24.7150662,78.5949027 24.7150662,80.3018044 23.8672673,81.9634902 M38.4946238,58.6207613 C37.5111771,60.2937511 36.086875,61.5258854 34.3686693,61.9893488 C32.6617676,62.2380365 31.1131217,62.2380365 29.1236203,61.2658938 C27.4280226,60.5311347 26.2863201,59.3442163 25.7211209,57.3999309 C25.0089698,55.7156372 25.2915694,53.7600478 26.2863201,52.109666 C26.9984712,50.4140682 28.7053729,49.4532295 30.2540188,48.7297745 C31.9722245,48.2663111 33.6678223,48.4923908 35.374724,49.4532295 C37.0816257,50.4140682 38.2120242,51.6348986 39.0711271,53.3078884 C39.4893745,55.2408698 39.2180789,56.9138596 38.4946238,58.6207613 M57.2479348,38.8387877 C56.400136,40.5456894 55.1114817,41.5065281 53.2802361,42.2186792 C51.855934,42.6934465 49.8664327,42.4560629 48.1708349,41.7326078 C46.4526292,41.0317608 45.3222307,39.7996264 44.7457275,37.889253 C44.0448804,36.1823512 44.3161761,34.2832818 45.0283271,32.57638 C46.0343818,31.140774 47.4586839,29.9425516 49.1542816,29.4338722 C50.8498794,28.7104172 52.7150369,28.9591049 54.128035,29.9425516 C56.1175363,30.6547026 57.2479348,32.0903087 57.8244381,33.8085144 C58.2539895,35.4815042 58.2539895,37.1771019 57.2479348,38.8387877 M76.8716526,23.6688399 C76.1481976,25.5905174 74.7351995,26.8113477 73.0282978,27.2974191 C71.321396,27.9982661 69.6144943,27.7608825 67.624993,26.8113477 C66.2119949,25.8052931 65.0815964,24.6183747 64.3581413,22.9566889 C63.6459903,21.2610911 63.7816381,19.5767974 64.7876928,17.621208 C65.7711395,16.2082099 66.9015379,14.9760755 68.6084397,14.2639245 C70.609245,13.7891571 72.1578909,13.7891571 73.7404488,14.7160839 C75.5716944,15.7221385 76.577749,16.9203609 77.1542523,18.5933507 C77.8550993,20.5263321 77.8550993,22.1993219 76.8716526,23.6688399 M100.734365,230.46394 C99.7396141,232.13693 98.5979117,233.323848 96.8910099,233.843832 C94.9015086,234.318599 93.1946069,234.318599 91.7703048,233.843832 C89.7808034,232.837777 88.6504049,231.424779 87.9382539,229.729181 C87.5200064,228.044887 87.5200064,226.100602 88.3678053,224.664996 C89.351252,222.483327 90.7868581,221.533792 92.7763594,221.059025 C94.4719572,220.810337 96.3145067,221.059025 97.8857606,221.759872 C99.3100627,222.483327 100.440461,223.715461 101.163916,225.377147 C101.864763,226.846665 101.864763,228.530959 100.734365,230.46394 M125.727475,237.449803 C125.015324,239.360176 123.591022,240.321015 121.884121,241.067078 C120.177219,241.541845 118.492925,241.304462 117.057319,240.321015 C115.21477,239.59756 114.220019,238.410641 113.530476,236.692436 C112.942669,234.793366 113.225268,233.323848 113.937419,231.650858 C114.920866,229.943957 116.062568,228.757038 117.76947,228.044887 C119.487676,227.332736 121.183274,227.558816 123.184079,228.282271 C124.597077,229.24311 125.727475,230.46394 126.303979,232.13693 C127.004826,233.843832 126.710922,235.742901 125.727475,237.449803 M76.1481976,216.729598 C75.142143,218.1539 74.0343524,219.103435 72.1578909,219.623419 C70.609245,220.346874 68.9023433,220.098186 67.2067455,219.103435 C65.2172442,218.402588 64.0755417,217.204366 63.6459903,215.248776 C62.9451432,213.564483 63.080791,211.880189 64.0755417,210.218503 C65.0815964,208.511601 66.2119949,207.550763 67.9075926,206.827308 C69.6144943,206.363844 71.321396,206.601228 73.0282978,207.324683 C74.7351995,208.262914 75.865598,209.732432 76.577749,211.156734 C77.1542523,213.112323 77.1542523,214.547929 76.1481976,216.729598 M45.7517822,191.159985 C46.7352288,189.486995 47.8882353,188.288772 49.8664327,187.294022 C51.855934,186.80795 53.2802361,186.80795 54.840186,187.780093 C56.8183834,188.752236 57.8244381,189.961762 58.5478931,191.906048 C58.9548365,193.805117 58.8191887,195.285939 57.8244381,196.936321 C57.112287,198.89191 55.8349367,200.327516 53.9810832,200.5649 C52.2854854,200.79098 50.8498794,200.5649 48.871682,199.830141 C47.4586839,199.129294 46.0343818,197.682384 45.3222307,196.22417 C44.3161761,194.77726 44.7457275,192.844278 45.7517822,191.159985 M44.7457275,174.079663 C43.7622808,175.978733 42.3379787,177.165651 40.631077,177.436947 C39.0711271,177.923018 37.0816257,177.685634 35.374724,176.928267 C33.9617259,175.978733 32.5261198,175.017894 31.8252727,173.310992 C31.1131217,171.649307 31.1131217,169.942405 32.2548242,168.032031 C33.2495748,166.336434 34.3686693,165.138211 36.3694747,164.65214 C38.0763764,163.951293 39.9189259,163.951293 41.4788759,164.889524 C43.3214254,165.612979 44.3161761,167.082497 45.0283271,168.744182 C45.7517822,170.451084 45.7517822,172.11277 44.7457275,174.079663 M38.4946238,148.724825 C37.5111771,150.194343 36.086875,151.155182 34.3686693,151.867333 C32.6617676,152.353404 31.1131217,152.353404 29.1236203,151.392566 C27.4280226,150.454335 26.2863201,149.244808 25.7211209,147.537907 C25.0089698,145.864917 25.2915694,144.169319 26.2863201,142.485025 C27.4280226,140.552044 28.7053729,139.365126 30.5479224,138.879054 C31.9722245,138.359071 33.6678223,138.641671 35.374724,139.579901 C37.0816257,140.31466 38.0763764,141.750266 38.7885274,143.457168 C39.4893745,145.118854 39.2180789,146.825756 38.4946238,148.724825 M235.398737,92.577932 C236.099584,94.2848337 236.099584,96.1952072 235.104834,97.6534212 C234.403987,99.326411 232.990988,100.795929 231.284087,101.282 C229.588489,101.745464 228.028539,101.745464 226.039038,100.795929 C224.603432,99.8011784 223.326081,98.602956 222.602626,96.9412702 C221.901779,95.2456724 222.184379,93.323995 223.190433,91.6057893 C224.038232,89.9554075 225.315583,88.9606568 227.022484,88.4858895 C228.446786,88.0111221 230.278032,88.0111221 231.984934,88.9606568 C233.691835,89.4693361 234.969186,90.9049422 235.398737,92.577932 M241.93244,124.149962 C240.93769,125.856864 239.807291,127.043782 237.806486,127.529853 C236.099584,127.755933 234.403987,127.529853 232.561437,127.043782 C230.865839,126.105551 229.859785,124.907329 229.13633,123.437811 C228.446786,121.764821 228.729386,120.046615 229.859785,117.921466 C230.571936,116.214564 231.984934,115.016342 233.997043,114.304191 C235.692641,113.772904 237.388239,114.055503 238.812541,115.016342 C240.65509,115.717189 241.93244,117.175403 242.373296,119.108385 C242.938495,120.543991 242.938495,122.239588 241.93244,124.149962 M220.895725,67.5283014 C221.61918,69.2352031 221.472228,70.8855849 220.488781,72.5924867 C219.77663,74.2654764 218.487976,75.4863068 216.792378,75.9723782 C215.232428,76.6845292 213.242927,76.6845292 211.536025,75.7349945 C210.111723,74.7402438 208.834373,73.5533254 208.122222,71.8803356 C207.421375,70.1734339 207.715278,68.5004441 208.416125,66.5561587 C209.42218,64.8944729 210.52997,63.6623386 212.248176,63.1875712 C214.237677,62.4641162 215.933275,62.7128038 217.640177,63.6623386 C219.075783,64.6231773 220.217485,65.8440077 220.895725,67.5283014 M201.73547,48.7297745 C202.447621,50.4140682 202.165022,51.8609783 201.45287,53.7600478 C200.45812,55.2408698 199.316417,56.4390922 197.62082,57.1512433 C195.902614,57.8973063 194.195712,57.6599226 192.206211,56.6651719 C190.793213,55.9643248 189.662814,54.7661024 189.086311,52.821817 C188.37416,51.374907 188.668064,49.4532295 189.662814,47.7689358 C190.374965,46.062034 191.799267,44.8751156 193.494865,44.4003483 C195.201767,43.6768932 196.897365,43.9368849 198.321667,44.6377319 C200.164216,45.5872667 201.158967,46.7854891 201.73547,48.7297745 M179.01446,35.9336636 C179.57966,37.1771019 179.57966,38.3640203 179.01446,39.7996264 C178.709253,41.0317608 177.997102,41.9812955 177.160607,42.9308302 C175.871953,43.9368849 174.594602,44.4003483 173.464204,44.6377319 C172.039902,44.8751156 170.762551,44.6377319 169.632153,43.9368849 C167.913947,43.1795179 166.500949,41.9812955 166.071398,40.070922 C165.212295,38.3640203 165.494894,36.9397182 166.218349,35.2215125 C167.913947,32.3276924 170.061704,31.140774 173.045956,31.140774 C176.165856,31.3894616 177.997102,33.0963633 179.01446,35.9336636 M153.433543,28.9591049 C154.13439,30.6547026 154.010046,32.3276924 153.275287,34.0345941 C152.29184,35.6962799 150.867538,36.9397182 149.318892,37.6405653 C147.747638,38.3640203 145.758137,38.1266366 144.062539,37.1771019 C142.355637,36.4197349 140.931335,34.9954328 140.513088,33.5485227 C139.936585,31.6155413 139.936585,29.9425516 140.931335,27.9982661 C141.914782,26.5626601 143.056484,25.5905174 144.763386,24.6183747 C146.481592,24.1436073 148.17719,24.1436073 149.872787,25.104446 C151.579689,26.0991967 152.710087,27.2974191 153.433543,28.9591049 M124.597077,34.5093615 C123.591022,36.4197349 122.178024,37.6405653 120.471122,37.889253 C118.492925,38.1266366 117.057319,37.889253 115.644321,36.9397182 C114.220019,36.4197349 112.942669,35.2215125 112.230517,33.8085144 C111.235767,32.3276924 111.52967,30.4060149 112.795717,28.4843375 C113.530476,26.5626601 114.638266,25.5905174 116.650376,24.8670623 C118.063374,24.392295 120.041571,24.6183747 121.612825,25.5905174 C123.591022,26.3252764 124.597077,27.5121948 125.015324,29.4338722 C125.580524,31.140774 125.309228,32.8024597 124.597077,34.5093615 M94.607605,45.8246504 C93.4772065,46.062034 92.0642084,46.062034 90.7868581,45.5872667 C89.6451556,44.8751156 88.6504049,44.4003483 87.9382539,43.4169016 C86.9435032,42.4560629 86.5252558,41.5065281 85.9487525,40.070922 C85.8131047,38.601404 85.9487525,37.4031816 86.6609036,36.1823512 C87.5200064,34.7467451 88.9330046,33.5485227 90.3573067,32.8024597 C92.2111602,32.0903087 93.9067579,32.3276924 95.9075633,33.0963633 C98.3040081,34.5093615 99.7396141,36.7023345 99.4457105,39.7996264 C99.3100627,42.9308302 97.8857606,44.8751156 94.607605,45.8246504 M77.5611957,54.5287188 C76.577749,56.2017085 75.4360466,57.3999309 73.4465452,58.1459939 C72.0222431,58.6207613 70.0440458,58.3720736 68.337144,57.3999309 C66.7658901,56.6651719 65.7711395,55.2408698 65.2172442,53.3078884 C64.7876928,51.6348986 64.7876928,49.9166929 65.7711395,48.2663111 C66.7658901,46.5481054 67.9075926,45.361187 69.6144943,44.8751156 C71.321396,44.4003483 73.0282978,44.4003483 74.8708473,45.361187 C76.577749,46.3107217 77.8550993,47.5315521 77.9907472,49.4532295 C78.5672504,51.374907 78.5672504,52.821817 77.5611957,54.5287188 M59.2487402,68.2630604 C59.5313398,70.1734339 59.2487402,71.8803356 58.8191887,73.3159417 C57.8244381,74.9776275 56.8183834,75.9723782 55.1114817,76.6845292 C53.2802361,77.4079842 51.855934,77.1706006 49.8664327,75.9723782 C48.4647385,74.9776275 47.1647803,73.7794051 46.7352288,72.1177193 C46.0343818,70.1734339 46.1700296,68.7491318 47.1647803,67.0422301 C47.8882353,65.3692403 49.3012334,64.1484099 50.9855272,63.6623386 C52.7150369,62.9501875 54.4219386,63.1875712 56.400136,63.8997223 C57.9487819,65.1431606 58.9548365,66.5561587 59.2487402,68.2630604 M44.0448804,97.6534212 C43.3214254,99.326411 42.3379787,100.309858 40.631077,101.033313 C39.2180789,101.745464 37.2285775,101.745464 35.374724,100.795929 C33.6678223,99.8011784 32.5261198,98.3881803 31.9722245,96.7038865 C31.2487695,94.7596011 31.5426731,93.323995 32.2548242,91.6057893 C33.2495748,89.9554075 34.3686693,88.7119692 36.3694747,88.2485058 C38.0763764,87.7737384 39.9189259,88.0111221 41.4788759,88.9606568 C43.3214254,89.9554075 44.6213837,91.1536299 44.7457275,92.8040117 C45.3222307,94.5109134 45.0283271,96.1952072 44.0448804,97.6534212 M38.4946238,121.267446 C37.2285775,122.951739 35.8042754,124.149962 34.2556295,124.658641 C32.5261198,125.144713 30.8192181,124.907329 29.1236203,124.149962 C27.6993182,122.951739 26.4219679,122.002205 25.9924165,120.295303 C25.0089698,118.622313 25.2915694,116.915412 26.2863201,115.016342 C27.4280226,113.072057 28.7053729,112.111218 30.5479224,111.625147 C31.9722245,111.410371 33.6678223,111.625147 35.374724,112.348602 C37.0816257,113.072057 38.0763764,114.530271 38.7885274,116.214564 C39.4893745,117.661475 39.2180789,119.583152 38.4946238,121.267446 M241.93244,148.962209 C240.93769,150.669111 239.807291,151.867333 237.806486,152.353404 C236.099584,153.099467 234.403987,152.862084 232.697085,152.116021 C229.13633,149.719576 228.028539,146.825756 229.430233,142.971097 C230.278032,141.264195 231.849286,140.31466 233.42054,139.579901 C235.398737,138.879054 236.823039,138.879054 238.529941,139.839893 C240.248147,140.778124 241.649841,142.258946 242.373296,143.931936 C242.938495,145.356238 242.938495,147.300523 241.93244,148.962209 M235.104834,174.079663 C234.403987,175.503965 233.262284,176.702188 231.284087,177.436947 C229.588489,177.923018 228.028539,177.923018 226.039038,176.928267 C224.603432,175.978733 223.608681,174.78051 222.89653,173.073609 C222.331331,171.649307 222.602626,169.705021 223.326081,168.269415 C224.320832,166.562513 225.586878,165.138211 227.169436,164.65214 C228.85373,163.951293 230.571936,163.951293 231.984934,164.889524 C233.997043,165.612979 235.104834,167.082497 235.692641,168.744182 C236.404792,170.451084 236.099584,172.11277 235.104834,174.079663 M221.901779,197.185008 C220.895725,198.89191 219.77663,200.090133 218.069728,200.79098 C216.362827,201.751818 214.667229,201.514435 212.960327,200.79098 C211.242121,199.830141 210.111723,198.383231 209.557828,196.710241 C208.834373,194.77726 208.834373,193.092966 209.840427,191.386064 C210.52997,189.713074 212.112528,188.526156 213.796822,187.780093 C215.390684,187.056638 217.074978,187.294022 219.075783,188.288772 C220.488781,189.000923 221.61918,190.436529 222.331331,192.132127 C223.190433,193.805117 222.89653,195.512019 221.901779,197.185008 M142.920837,231.424779 C143.791243,229.469189 145.328585,228.530959 146.752887,227.7962 C148.606741,227.332736 150.313643,227.558816 151.726641,228.282271 C153.716142,229.24311 154.710893,230.46394 155.423044,232.13693 C156.146499,233.843832 156.146499,235.742901 155.140444,237.449803 C154.13439,239.360176 153.003991,240.321015 151.297089,240.81839 C149.601492,241.304462 147.747638,241.067078 146.040736,240.072327 C144.356443,239.360176 143.350388,237.935874 142.626933,236.228972 C141.914782,234.544679 142.219989,232.837777 142.920837,231.424779 M203.148468,216.729598 C202.165022,218.402588 201.023319,219.623419 199.316417,220.098186 C197.62082,220.572953 195.902614,220.572953 194.195712,219.623419 C192.477506,218.628668 191.358412,217.441749 190.646261,215.497464 C189.93411,214.061858 190.069758,212.354956 190.793213,210.69327 C191.799267,208.975065 193.212265,207.788146 194.919167,207.064691 C196.626069,206.363844 198.321667,206.601228 200.028568,207.324683 C201.882422,208.262914 203.148468,209.732432 203.57802,211.405422 C204.290171,213.112323 204.143219,215.011393 203.148468,216.729598 M179.01446,230.69002 C178.279701,232.374314 177.160607,233.561232 175.159802,234.318599 C173.464204,234.793366 171.768606,234.544679 170.061704,233.843832 C168.196547,232.837777 167.2131,231.424779 166.500949,229.943957 C166.071398,228.044887 166.071398,226.575369 166.930501,224.664996 C167.913947,222.94679 169.202601,222.008559 170.762551,221.285104 C172.469453,220.572953 174.176355,220.572953 175.589353,221.533792 C177.590158,222.483327 178.709253,223.952845 179.57966,225.625835 C180.280507,227.558816 179.986603,228.983118 179.01446,230.69002 M197.33822,191.159985 C196.897365,192.844278 195.337415,194.279884 193.788769,194.77726 C191.799267,195.512019 190.069758,195.512019 188.249816,194.528572 C186.667258,193.805117 185.53686,192.392119 184.836013,190.436529 C184.259509,188.752236 184.259509,187.056638 185.242956,185.394952 C185.966411,183.68805 187.390713,182.501132 189.086311,181.777677 C190.793213,181.054222 192.477506,181.30291 194.195712,182.015061 C195.902614,182.975899 197.05562,184.422809 197.756467,186.107103 C198.321667,187.780093 198.321667,189.713074 197.33822,191.159985 M76.577749,178.872553 C77.1542523,180.556847 76.8716526,182.263748 76.1481976,183.91413 C75.142143,185.394952 74.1700002,186.344487 72.4517945,187.056638 C70.7448928,187.780093 69.1962469,187.531405 67.2067455,186.344487 C65.4885398,185.86972 64.3581413,184.422809 63.6459903,182.715908 C63.080791,181.054222 63.080791,179.358624 64.0755417,177.685634 C65.0815964,175.978733 66.2119949,174.78051 68.2014962,174.079663 C69.9083979,173.55968 71.4570439,173.78576 73.0282978,174.531823 C75.142143,175.730045 76.4194932,177.165651 76.577749,178.872553 M95.9075633,202.271802 C94.9015086,203.933487 93.4772065,204.894326 91.7703048,205.640389 C90.074707,206.126461 88.3678053,205.877773 86.9435032,205.120406 C85.1009537,204.182175 84.094899,202.735265 83.5183958,201.277051 C82.8175487,199.366678 82.8175487,197.682384 84.094899,196.22417 C84.818354,194.528572 85.9487525,193.33035 87.9382539,192.844278 C89.351252,192.132127 91.3633613,192.392119 92.9120072,193.33035 C94.607605,194.042501 95.6136596,195.285939 96.3145067,197.185008 C96.8910099,198.89191 96.5971063,200.5649 95.9075633,202.271802 M60.2434908,135.510467 C59.5313398,137.42084 58.2539895,138.359071 56.400136,139.127742 C54.7045382,139.579901 52.9976365,139.365126 51.2907348,138.359071 C49.595137,137.658224 48.4647385,136.460001 47.8882353,134.515716 C47.1647803,133.08011 47.4586839,131.135825 48.1708349,129.462835 C49.1542816,127.755933 50.2846801,126.806398 51.9915818,126.105551 C53.6984836,125.61948 55.4053853,125.856864 56.8183834,126.569015 C58.8191887,127.529853 59.9608912,128.999371 60.6617383,130.434978 C61.2382415,132.356655 61.2382415,134.029645 60.2434908,135.510467 M77.8550993,85.863365 C77.1542523,87.7737384 75.5716944,88.9606568 73.7404488,89.4693361 C72.0222431,89.9554075 70.3153414,89.9554075 68.6084397,88.9606568 C66.9015379,88.0111221 65.7711395,86.8128997 65.2172442,84.8686143 C64.7876928,83.4443122 64.7876928,81.5000268 65.7711395,79.815733 C66.7658901,78.1314393 67.9075926,77.1706006 69.6144943,76.4471455 C71.321396,75.9723782 73.0282978,76.2097618 74.8708473,77.1706006 C76.577749,78.1314393 77.8550993,79.3522696 78.2846508,81.0139554 C78.9968018,82.7208572 78.7028982,84.3938469 77.8550993,85.863365 M194.636568,78.1314393 C193.788769,79.5783493 192.477506,80.7765717 190.793213,81.2626431 C189.086311,81.9634902 187.390713,81.7374105 185.53686,80.7765717 C183.829958,80.0644207 182.835207,78.8775023 182.13436,77.1706006 C181.422209,75.2602271 181.693505,73.5533254 182.41696,72.1177193 C183.411711,70.1734339 184.836013,69.2352031 186.520306,68.5004441 C187.955912,67.9917648 189.93411,68.2630604 191.358412,68.9865155 C193.065314,69.9360502 194.195712,71.1342726 194.919167,72.8411743 C195.620014,74.5028601 195.620014,76.2097618 194.636568,78.1314393 M173.882451,63.8997223 C173.045956,65.59532 171.768606,66.5561587 170.061704,67.0422301 C168.196547,67.5283014 166.500949,67.5283014 165.087951,66.5561587 C163.087146,65.59532 161.956747,64.3744896 161.380244,62.7128038 C160.679397,61.0059021 160.9733,59.3442163 161.956747,57.8973063 C162.793242,55.9643248 164.0932,54.7661024 165.800102,54.2800311 C167.4957,53.7600478 169.202601,53.7600478 170.626904,54.7661024 C172.469453,55.7156372 173.746803,56.9138596 174.44765,58.858145 C174.888506,60.2937511 174.888506,62.2380365 173.882451,63.8997223 M219.075783,117.661475 C219.482726,119.345768 219.482726,121.05267 218.487976,122.476972 C217.640177,124.907329 216.068923,126.105551 214.520277,126.331631 C212.824679,126.569015 211.106474,126.331631 209.42218,125.61948 C207.715278,124.658641 206.562272,123.686499 205.714473,122.002205 C205.273617,120.543991 205.273617,118.622313 206.562272,116.915412 C207.421375,115.253726 208.698725,113.772904 210.52997,113.072057 C212.248176,112.597289 214.237677,112.597289 215.66198,113.546824 C217.368881,114.530271 218.487976,115.717189 219.075783,117.661475 M175.453705,207.324683 C174.44765,208.975065 173.181604,210.218503 171.621654,210.69327 C169.926057,211.156734 168.196547,211.156734 166.500949,210.218503 C164.794047,209.257664 163.528001,207.788146 163.087146,206.126461 C162.668898,204.645639 162.668898,202.995257 163.528001,201.277051 C164.511448,199.604061 165.800102,198.383231 167.4957,197.682384 C169.202601,197.185008 171.033847,197.422392 172.763357,198.383231 C174.176355,199.366678 175.453705,200.5649 175.871953,202.271802 C176.595408,203.696104 176.448456,205.640389 175.453705,207.324683 M150.313643,214.762705 C149.601492,216.729598 148.459789,217.916517 146.481592,218.402588 C144.763386,219.103435 143.056484,218.628668 141.349583,217.916517 C139.507033,216.955678 138.240987,215.497464 137.800131,214.061858 C137.37058,212.354956 137.37058,210.69327 138.240987,208.748985 C139.213129,207.324683 140.513088,206.126461 142.219989,205.640389 C143.791243,204.894326 145.486841,205.120406 147.182439,206.126461 C148.889341,207.064691 150.166691,208.262914 150.867538,209.969815 C151.297089,211.654109 151.297089,213.112323 150.313643,214.762705 M64.0755417,159.85925 C63.080791,161.747016 61.6564889,162.719158 60.2434908,163.702605 C58.5478931,164.188676 56.8183834,164.188676 54.840186,163.182622 C53.2802361,162.244391 52.2854854,161.046169 51.5620304,159.339267 C50.8498794,157.666277 50.8498794,155.733296 51.855934,154.049002 C52.7150369,152.353404 54.128035,151.155182 55.8349367,150.454335 C57.2479348,149.968263 59.2487402,150.194343 60.9443379,150.917798 C62.6512396,151.867333 63.6459903,153.348155 64.3581413,154.772457 C65.0815964,156.705438 65.0815964,158.152349 64.0755417,159.85925 M64.7876928,108.731326 C63.6459903,110.9243 62.0747364,112.111218 60.3904426,112.111218 C58.8191887,112.348602 57.112287,112.111218 55.4053853,111.625147 C53.6984836,110.9243 52.5680851,109.680861 51.855934,108.267863 C51.2907348,106.560961 51.2907348,104.887972 52.5680851,103.18107 C53.4271879,101.282 54.7045382,100.083778 56.5357838,99.326411 C58.2539895,98.8516436 60.2434908,98.8516436 61.6564889,99.8011784 C63.3746946,100.547241 64.7876928,101.745464 65.2172442,103.701053 C65.7711395,105.374043 65.7711395,107.069641 64.7876928,108.731326 M98.7335595,67.5283014 C97.8857606,69.2352031 96.5971063,70.4334255 94.9015086,71.1342726 C92.9120072,71.620344 91.3633613,71.620344 89.6451556,70.6482013 C87.9382539,69.6986665 86.6609036,68.5004441 85.9487525,66.5561587 C85.5305051,64.8944729 85.8131047,63.1875712 86.6609036,61.5258854 C87.5200064,59.8189837 88.9330046,58.6207613 90.3573067,58.1459939 C92.2111602,57.3999309 93.9067579,57.6599226 95.9075633,58.6207613 C97.591857,59.3442163 98.7335595,60.7572144 99.3100627,62.4641162 C99.7396141,64.1484099 99.7396141,65.8440077 98.7335595,67.5283014 M149.318892,51.8609783 C150.166691,53.3078884 149.872787,55.0147901 149.17194,56.6651719 C148.459789,58.3720736 147.182439,59.558992 145.328585,60.2937511 C143.621684,60.7572144 141.914782,60.7572144 139.936585,59.8189837 C138.240987,59.0955287 137.37058,57.6599226 136.805381,55.9643248 C136.09323,54.2800311 136.387133,52.5731294 137.37058,50.9227476 C138.240987,49.2158458 139.507033,48.0176234 141.213935,47.3054724 C142.920837,46.7854891 144.627738,46.7854891 146.176384,47.7689358 C147.883286,48.7297745 148.889341,49.9166929 149.318892,51.8609783 M209.840427,97.9021089 C208.834373,99.5750987 207.715278,100.795929 205.997072,101.282 C204.290171,101.982847 202.594573,101.982847 201.158967,101.033313 C199.316417,100.309858 198.027763,98.8516436 197.33822,97.1899579 C196.897365,95.4830561 196.897365,93.7987624 197.756467,91.865781 C198.468618,90.4188709 199.745969,89.1980405 201.73547,88.4858895 C203.148468,88.0111221 205.002322,88.0111221 206.709223,88.9606568 C208.416125,89.9554075 209.557828,91.1536299 210.111723,92.8040117 C210.81257,94.5109134 210.52997,96.1952072 209.840427,97.9021089 M121.183274,213.564483 C120.041571,215.011393 118.764221,216.254831 117.057319,216.955678 C115.21477,217.667829 113.530476,217.441749 112.09487,216.729598 C110.094064,215.497464 108.952362,214.299242 108.387163,212.626252 C107.69762,210.91935 107.980219,209.257664 108.952362,207.324683 C109.687121,205.877773 110.817519,204.645639 112.795717,204.182175 C114.355667,203.221336 116.062568,203.45872 118.063374,204.419559 C119.487676,205.120406 120.753722,206.601228 121.477177,208.262914 C122.178024,209.969815 122.178024,211.654109 121.183274,213.564483 M211.536025,170.925851 C210.52997,172.598841 209.116972,174.079663 207.421375,174.531823 C205.714473,175.277886 204.143219,175.277886 202.447621,174.294439 C200.729415,173.55968 199.316417,172.11277 198.762522,170.451084 C198.027763,168.744182 198.321667,167.082497 199.045122,165.138211 C200.028568,163.702605 201.158967,162.481775 203.148468,161.747016 C204.85537,160.797481 206.709223,161.046169 208.122222,161.747016 C210.111723,162.719158 211.106474,164.188676 211.818625,165.850362 C212.530776,167.557264 212.530776,169.467637 211.536025,170.925851 M123.184079,57.8973063 C122.178024,59.8189837 120.900674,60.7572144 119.340724,61.5258854 C117.48687,62.2380365 115.644321,62.2380365 113.937419,61.2658938 C112.230517,60.2937511 111.100119,59.0955287 110.387968,57.1512433 C109.822769,55.2408698 110.094064,53.7600478 110.817519,52.109666 C111.823574,50.4140682 113.225268,48.9671582 114.638266,48.2663111 C116.650376,47.7689358 118.345973,47.7689358 120.041571,48.7297745 C121.612825,49.6906132 122.596272,50.9227476 123.591022,52.821817 C124.020574,54.5287188 124.020574,56.2017085 123.184079,57.8973063 M219.075783,147.77529 C218.069728,149.244808 216.634122,150.194343 214.938524,150.917798 C212.960327,151.867333 211.536025,151.641253 209.840427,150.669111 C208.122222,149.719576 206.709223,148.487441 206.279672,146.825756 C205.714473,145.118854 205.714473,143.457168 206.562272,141.512883 C207.421375,139.839893 208.698725,138.879054 210.52997,138.132991 C212.248176,137.42084 214.237677,137.42084 215.66198,138.132991 C217.368881,139.127742 218.487976,140.31466 219.200127,142.258946 C219.923582,143.931936 219.923582,145.864917 219.075783,147.77529 M185.53686,101.033313 C186.249011,102.694999 185.966411,104.187125 185.242956,106.086194 C184.259509,107.781792 182.835207,108.731326 181.422209,109.466085 C179.57966,110.178237 177.997102,110.178237 176.165856,109.217398 C174.44765,108.267863 173.464204,106.787041 172.763357,105.125355 C172.039902,103.18107 172.039902,101.745464 173.045956,100.083778 C173.882451,98.3881803 175.453705,97.1899579 177.160607,96.4665028 C179.01446,95.9578235 180.416155,96.1952072 182.13436,96.9412702 C183.829958,97.9021089 184.960356,99.326411 185.53686,101.033313 M102.147363,174.531823 C101.163916,176.204812 99.7396141,177.436947 98.0214084,177.923018 C96.3145067,178.397786 94.607605,178.397786 92.9120072,177.436947 C91.3633613,176.702188 90.074707,175.503965 89.351252,173.55968 C88.9330046,171.88669 89.0686524,170.179788 89.7808034,168.269415 C90.7868581,166.562513 92.2111602,165.612979 93.9067579,165.138211 C95.6136596,164.414756 97.3205614,164.65214 99.3100627,165.612979 C100.734365,166.562513 101.864763,167.794648 102.429963,169.467637 C103.277761,171.174539 103.142114,172.847529 102.147363,174.531823 M88.6504049,152.862084 C87.6443503,154.535073 86.5252558,155.733296 84.818354,156.241975 C83.1114523,156.705438 81.4045506,156.241975 79.4263532,155.247224 C77.9907472,154.535073 76.8716526,153.348155 76.1481976,151.641253 C75.5716944,149.719576 75.5716944,148.023978 76.577749,146.339684 C77.5611957,144.870166 78.7028982,143.671944 80.4211039,143.219784 C82.3879973,142.485025 84.094899,142.733713 85.5305051,143.671944 C87.5200064,144.418007 88.6504049,145.864917 89.0686524,147.537907 C89.7808034,149.244808 89.6451556,150.917798 88.6504049,152.862084 M94.4719572,106.312274 C93.4772065,108.493943 92.2111602,109.680861 90.3573067,109.929549 C88.3678053,110.41562 86.9435032,110.178237 85.2479055,109.217398 C83.5183958,108.493943 82.5462531,107.307024 81.834102,105.600123 C81.110647,103.927133 81.4045506,102.231535 82.5462531,100.309858 C83.5183958,98.3881803 84.818354,97.4160375 86.6609036,96.9412702 C88.3678053,96.9412702 90.074707,97.1899579 91.7703048,97.9021089 C93.4772065,98.602956 94.4719572,99.8011784 95.1841082,101.282 C95.9075633,102.943686 95.33106,104.639284 94.4719572,106.312274 M165.494894,83.2069285 C166.218349,84.8686143 166.071398,86.3268283 165.212295,88.0111221 C164.364496,89.7180238 163.087146,90.9049422 161.380244,91.3910136 C159.673342,91.865781 158.113392,91.865781 156.146499,90.9049422 C154.710893,89.9554075 153.433543,88.7119692 152.710087,87.0615874 C152.29184,85.3546856 152.29184,83.6816959 153.275287,81.7374105 C154.010046,80.3018044 155.423044,79.114886 157.129946,78.5949027 C158.972495,78.1314393 160.679397,78.1314393 162.103699,79.114886 C164.0932,80.0644207 165.087951,81.5000268 165.494894,83.2069285 M177.590158,175.017894 C176.595408,176.464804 175.159802,177.685634 173.464204,178.171706 C172.039902,178.872553 170.061704,178.623865 168.49045,177.685634 C166.794853,176.702188 165.494894,175.503965 165.087951,173.78576 C164.364496,172.11277 164.364496,170.451084 165.212295,168.506799 C166.071398,167.082497 167.631348,165.850362 169.338249,165.375595 C171.033847,164.889524 172.763357,165.138211 174.44765,165.850362 C176.165856,166.833809 177.296255,168.032031 177.997102,169.705021 C178.573605,171.649307 178.279701,173.073609 177.590158,175.017894 M154.13439,188.288772 C153.003991,190.199146 151.579689,191.386064 149.872787,191.386064 C147.883286,191.906048 146.176384,191.386064 144.763386,190.685217 C143.350388,189.961762 142.355637,188.752236 141.349583,187.294022 C140.648736,185.86972 140.931335,184.162818 141.914782,182.015061 C142.920837,180.308159 144.356443,179.109937 145.758137,178.397786 C147.747638,177.923018 149.318892,178.171706 151.01449,178.872553 C152.710087,180.070775 153.716142,181.30291 154.439597,182.975899 C155.140444,184.671497 155.140444,186.344487 154.13439,188.288772 M124.732725,187.780093 C123.591022,189.713074 122.178024,190.685217 120.753722,190.899993 C118.764221,191.386064 117.351223,191.159985 115.926921,190.436529 C114.355667,189.486995 113.225268,188.288772 112.524421,186.80795 C111.823574,185.394952 111.823574,183.450667 112.795717,181.517685 C113.65482,179.607312 115.21477,178.397786 117.057319,178.171706 C118.764221,177.923018 120.753722,177.923018 122.178024,178.872553 C123.591022,179.607312 124.732725,181.054222 125.580524,182.501132 C126.010075,184.422809 126.010075,185.86972 124.732725,187.780093 M139.936585,81.7374105 C138.93053,83.4443122 137.800131,84.3938469 136.09323,85.105998 C134.386328,85.863365 132.837682,85.863365 130.836877,84.8686143 C129.423879,83.9077756 128.146528,82.4834735 127.716977,80.7765717 C127.004826,79.114886 127.140474,77.4079842 128.146528,75.7349945 C128.847375,74.0393967 130.565581,72.8411743 132.261179,72.1177193 C133.96808,71.620344 135.663678,71.8803356 137.37058,72.5924867 C138.93053,73.5533254 140.20788,74.9776275 140.648736,76.4471455 C141.213935,78.368823 140.931335,80.0644207 139.936585,81.7374105 M86.2313522,128.999371 C85.5305051,130.898441 84.094899,132.130575 82.3879973,132.605343 C80.7037035,133.08011 78.9968018,133.08011 77.5611957,132.130575 C75.5716944,131.135825 74.7351995,129.948906 74.0343524,128.275916 C73.4465452,126.569015 73.4465452,124.907329 74.7351995,122.951739 C75.4360466,121.527437 76.577749,120.295303 78.2846508,119.583152 C79.9802485,119.108385 81.834102,119.108385 83.5183958,120.046615 C85.2479055,120.77007 86.2313522,122.239588 86.9435032,124.149962 C87.5200064,125.856864 87.2374068,127.529853 86.2313522,128.999371 M190.793213,154.29769 C189.93411,156.468055 188.37416,157.666277 186.520306,157.903661 C184.836013,158.152349 183.129111,158.152349 181.422209,157.19151 C179.986603,156.468055 178.709253,155.247224 177.997102,153.800314 C177.590158,152.116021 177.590158,150.194343 178.709253,148.261362 C179.986603,146.339684 181.422209,145.118854 183.129111,144.870166 C184.836013,144.870166 186.520306,144.870166 187.955912,145.864917 C189.368911,146.577068 190.646261,147.77529 191.358412,149.244808 C191.799267,150.917798 191.799267,152.590788 190.793213,154.29769 M112.230517,89.1980405 C111.235767,90.9049422 110.094064,91.865781 108.387163,92.577932 C106.691565,93.323995 104.995967,93.323995 103.277761,92.3518523 C101.729115,91.3910136 100.440461,89.9554075 100.01091,88.2485058 C99.3100627,86.575516 99.4457105,84.8686143 100.440461,83.2069285 C101.163916,81.5000268 102.576914,80.0644207 104.272512,79.5783493 C105.990718,79.114886 107.69762,79.114886 109.110618,80.0644207 C111.100119,81.0139554 112.230517,82.4834735 112.795717,83.9077756 C113.225268,85.5920693 113.225268,87.5137468 112.230517,89.1980405 M194.195712,124.149962 C194.919167,125.856864 194.489616,127.529853 193.788769,128.999371 C192.782714,131.135825 191.358412,132.356655 189.662814,132.605343 C187.955912,133.08011 186.249011,132.842726 184.836013,131.881888 C183.411711,131.135825 182.13436,129.948906 181.422209,128.5133 C180.992658,126.806398 180.992658,125.144713 181.987408,122.951739 C182.699559,121.527437 183.829958,120.295303 185.808155,119.583152 C187.390713,119.108385 189.086311,119.108385 190.793213,120.046615 C192.782714,120.77007 193.788769,122.239588 194.195712,124.149962 M177.861454,133.08011 C177.861454,139.365126 176.595408,145.356238 174.44765,150.669111 C172.039902,156.241975 169.202601,161.283552 165.087951,165.375595 C160.9733,169.467637 156.146499,172.847529 150.867538,175.017894 C145.758137,177.436947 139.936585,178.623865 133.96808,178.623865 C127.863929,178.623865 122.178024,177.436947 116.786023,175.017894 C111.52967,172.847529 106.974164,169.467637 103.142114,165.375595 C99.0274631,161.283552 95.9075633,156.241975 93.6128543,150.669111 C91.3633613,145.356238 90.3573067,139.365126 90.3573067,133.08011 C90.3573067,126.806398 91.3633613,120.77007 93.6128543,115.253726 C95.9075633,109.680861 99.0274631,104.639284 103.142114,100.547241 C106.974164,96.4665028 111.52967,93.0979153 116.786023,90.9049422 C122.178024,88.4858895 127.863929,87.298971 133.96808,87.298971 C139.936585,87.298971 145.758137,88.4858895 150.867538,90.9049422 C156.146499,93.0979153 160.9733,96.4665028 165.087951,100.547241 C169.202601,104.639284 172.039902,109.680861 174.44765,115.253726 C176.595408,120.77007 177.861454,126.806398 177.861454,133.08011 M148.17719,134.515716 C148.17719,137.895608 146.752887,140.778124 143.791243,143.457168 C140.931335,146.113605 137.800131,147.300523 133.96808,147.300523 C130.147334,147.300523 127.004826,146.113605 124.314477,143.457168 C121.612825,140.778124 120.471122,137.895608 120.471122,134.515716 C120.471122,130.898441 121.612825,127.755933 124.314477,125.144713 C127.004826,122.476972 130.147334,121.267446 133.96808,121.267446 C137.800131,121.267446 140.931335,122.476972 143.791243,125.144713 C146.752887,127.755933 148.17719,130.898441 148.17719,134.515716"
              id="Background" fill="url(#radialGradient-1)"></path>
    </g>
</svg>
